<?xml version="1.0" standalone="no"?>
<!DOCTYPE svg PUBLIC "-//W3C//DTD SVG 20010904//EN"
 "http://www.w3.org/TR/2001/REC-SVG-20010904/DTD/svg10.dtd">
<svg version="1.0" xmlns="http://www.w3.org/2000/svg"
 width="465.000000pt" height="465.000000pt" viewBox="0 0 465.000000 465.000000"
 preserveAspectRatio="xMidYMid meet">
<metadata>
Created by potrace 1.14, written by Peter Selinger 2001-2017
</metadata>
<g transform="translate(0.000000,465.000000) scale(0.100000,-0.100000)"
fill="#000000" stroke="none">
<path d="M192 4629 c-73 -28 -143 -99 -170 -172 l-22 -58 0 -2082 1 -2082 30
-62 c35 -72 92 -125 168 -154 50 -18 103 -19 2128 -18 l2078 0 55 21 c70 27
141 99 169 170 20 53 20 71 20 2133 0 2038 0 2081 -20 2131 -27 70 -76 124
-145 159 l-59 30 -2090 2 c-2076 2 -2090 2 -2143 -18z"/>
</g>
</svg>
