<svg xmlns="http://www.w3.org/2000/svg" fill-rule="evenodd" viewBox="0 0 950 502" clip-rule="evenodd" data-test="logo-main" height="29" width="55" class="logo"><path fill="#313131" d="M15.1 186.1h21.3v17.3h.5c1.4-3 3.3-5.7 5.7-8.2 2.4-2.4 5-4.5 7.9-6.3 2.9-1.7 6.1-3.1 9.6-4.1 3.5-1 6.9-1.5 10.4-1.5s6.6.5 9.5 1.4l-.9 23c-1.7-.5-3.5-.9-5.2-1.2-1.7-.3-3.5-.5-5.2-.5-10.4 0-18.4 2.9-23.9 8.8-5.5 5.8-8.3 14.9-8.3 27.2v56.4H15.1V186.1zM93 242.3c0-8.2 1.5-15.9 4.6-23 3.1-7.1 7.3-13.3 12.7-18.7 5.4-5.4 11.7-9.6 18.9-12.7 7.3-3.1 15.1-4.6 23.4-4.6 8.4 0 16.2 1.5 23.4 4.6 7.3 3.1 13.6 7.3 18.9 12.7 5.4 5.4 9.6 11.6 12.7 18.7 3.1 7.1 4.6 14.8 4.6 23s-1.5 15.9-4.6 23.1c-3.1 7.2-7.3 13.4-12.7 18.7-5.4 5.3-11.7 9.5-18.9 12.5-7.3 3.1-15.1 4.6-23.4 4.6-8.4 0-16.2-1.5-23.4-4.6-7.3-3.1-13.6-7.3-18.9-12.5-5.4-5.3-9.6-11.5-12.7-18.7-3-7.2-4.6-14.9-4.6-23.1m22.8 0c0 5.7.9 10.9 2.6 15.7 1.7 4.8 4.2 8.9 7.3 12.3 3.2 3.4 7 6.1 11.6 8.1s9.7 3 15.4 3c5.7 0 10.8-1 15.4-3s8.4-4.7 11.6-8.1c3.2-3.4 5.6-7.5 7.3-12.3 1.7-4.8 2.6-10.1 2.6-15.7 0-5.7-.9-10.9-2.6-15.7-1.7-4.8-4.2-8.9-7.3-12.3-3.2-3.4-7-6.1-11.6-8.1s-9.7-3-15.4-3c-5.7 0-10.8 1-15.4 3s-8.4 4.7-11.6 8.1c-3.2 3.4-5.6 7.5-7.3 12.3-1.8 4.7-2.6 10-2.6 15.7M239.1 119.4h21.3v84.1h.5c2.7-6 7.3-10.9 14-14.6 6.6-3.7 14.3-5.6 23-5.6 5.4 0 10.5.8 15.5 2.5s9.3 4.2 13 7.7c3.7 3.5 6.7 7.9 8.9 13.4 2.2 5.4 3.3 11.9 3.3 19.3v72.2h-21.3v-66.3c0-5.2-.7-9.7-2.1-13.4-1.4-3.7-3.3-6.7-5.7-9-2.4-2.3-5.1-3.9-8.2-5-3.1-1-6.3-1.5-9.6-1.5-4.4 0-8.5.7-12.3 2.1-3.8 1.4-7.1 3.7-9.9 6.7-2.8 3.1-5.1 7-6.6 11.7-1.6 4.7-2.4 10.3-2.4 16.8v57.8h-21.3V119.4h-.1zm133.3 0h21.3v179h-21.3zm51.9 26.5c0-4.3 1.5-7.9 4.6-11 3.1-3.1 6.7-4.6 11-4.6s7.9 1.5 11 4.6c3.1 3.1 4.6 6.7 4.6 11s-1.5 7.9-4.6 11c-3.1 3.1-6.7 4.6-11 4.6s-7.9-1.5-11-4.6c-3.1-3.1-4.6-6.7-4.6-11m4.9 40.2h21.3v112.2h-21.3V186.1zm55.2-66.7h21.3v115.5l48.3-48.5h29.6l-52.3 50.9 56.8 61.1h-30.3l-52.1-58.3v58.3h-21.3v-179z"></path><path fill="#767676" d="M408.4 428.1c0-2.3.8-4.2 2.4-5.7 1.6-1.6 3.5-2.4 5.7-2.4 2.3 0 4.2.8 5.7 2.4 1.6 1.6 2.4 3.5 2.4 5.7s-.8 4.2-2.4 5.7c-1.6 1.6-3.5 2.4-5.7 2.4s-4.1-.8-5.7-2.4c-1.6-1.6-2.4-3.5-2.4-5.7M517.1 423.7c-3.8 4.6-8.1 8-13 10.2-4.8 2.2-10 3.3-15.7 3.3-6 0-11.4-1-16.5-3s-9.4-4.9-13-8.5c-3.6-3.6-6.4-8-8.4-13s-3-10.5-3-16.4c0-5.9 1-11.4 3-16.4 2-5 4.8-9.3 8.4-13 3.6-3.6 7.9-6.5 13-8.5s10.6-3 16.5-3c5.7 0 11 1.2 15.9 3.5 4.9 2.4 9.2 5.7 13.1 9.9l-8.1 6.1c-2.9-3.2-6.1-5.8-9.6-7.7-3.5-1.9-7.2-2.8-11.3-2.8-4.7 0-9 .8-12.8 2.5-3.8 1.7-7.1 4-9.8 6.8-2.7 2.9-4.7 6.2-6.1 10.1-1.4 3.9-2.1 8-2.1 12.4s.7 8.5 2.1 12.4c1.4 3.9 3.5 7.2 6.1 10.1 2.7 2.9 6 5.1 9.8 6.8 3.8 1.7 8.1 2.5 12.8 2.5 4.3 0 8.2-1 11.7-2.9 3.5-2 6.6-4.6 9.2-7.8l7.8 6.4zm6.9 5.4l46.6-62.6h-44.3v-9.1h58.3v6l-46.5 62.7h48.5v9.1H524v-6.1z"></path><clipPath id="prefix__a"><path d="M853.6 401.1c-39.7 7.5-64.5 42.1-60.3 46.3 4.2 4.1 26.9 17.6 28.8 16.1 24.7-20.7 70.4-22.2 74.3-17.5 3.9 4.7-4-41.1-4-41.1s-4.4-5.6-20.5-5.6c-4.9-.1-10.9.4-18.3 1.8m-53.7-68c-39.7 7.5-64.5 42.1-60.3 46.3 4.2 4.1 16.9 50.1 18.4 48.1 20-26.5 59.2-53.2 84.7-49.6 3.6.5 4.7-13.4 2.8-24.9-1.3-7.8-5.5-14.7-5.5-14.7s-.9-7.4-19.1-7.4c-5.4-.1-12.3.5-21 2.2m-21.2-194c-20.3 15.9-64.8 13.9-95.3 1-2.3-1 6.8 43.6 5.3 49.3-1.5 5.6 37.2 23.3 75.4 9.9 37-13 32.2-24.5 32.2-24.5s1.1-5.2-1-11.1c-3.8-10.6-12-24.9-15.7-24.9-.4.1-.7.2-.9.3M790.4 56c-1.1 6-41.4 27.5-73.1 22-2.5-.4-15.4 22.7-16.9 28.3-1.5 5.6 37.2 23.3 75.4 9.9 30-10.5 32.6-23.4 32.6-23.4s.9-10.2-.5-15.1c-3.1-10.8-13.8-22.3-16.7-22.3-.5-.1-.7.1-.8.6"></path></clipPath><path fill="url(#prefix__logoIncartA)" d="M1056.2 393.1L719.6 548.5 525.2 127.3 861.9-28.1l194.3 421.2z" clip-path="url(#prefix__a)"></path><clipPath id="prefix__b"><path d="M883.4 447.6c-7.8 14.9-23.7 25.8-32.1 29 13.6 3.6 27.6 6.1 41.8 7.3v-.2c4 .5 8.2.2 12.4-.9 17.5-4.7 27.9-22.7 23.2-40.3-2.5-9.2-9.4-17.1-17.1-21.2-7.3-5.6-13.4-11.3-20.3-17.8.7 4.2 3 23.3-7.9 44.1m-103-2c12.2 7.7 25 14.4 38.4 20 5.3-2.2 20-11.1 36.8-39.3 15.6-26.1 10.8-49.8 10.8-49.8-9.9-12.3-19-25.7-27.2-40 3.5 26.2-27.1 84.3-58.8 109.1m-108.6-148c14.4 53.8 45.1 98.9 85.4 131.3 46.9-31.4 69.2-99.9 50.6-169.3-18.4-68.6-70.9-116.5-126.6-121.2-19.5 49-24.1 104.4-9.4 159.2m44-219.7c-8.4 10.9-15.9 22.6-22.5 34.7 39.1 6.1 92.2 39.4 103.3 64.8-.1-16.3 1.1-32.2 3.5-47.6-4-9.8-17.2-26.4-31.2-35.6-21.5-14.2-39.1-16.6-48.4-16.6-1.9.1-3.5.2-4.7.3m67.1-58.7c-2.5.7-4.9 1.7-7.1 2.9V22c-13.7 9.1-26.3 19.4-37.7 30.8 7.9-2 27.1-1 41.9 8.5 19.4 12.4 26.7 28.4 28.4 32.5 3.2-10.7 7-21.1 11.4-31h-.2c2.9-6.4 3.8-13.9 1.8-21.2-3.8-14-16.4-23.3-30.2-23.3-2.9-.1-5.6.2-8.3.9"></path></clipPath><path fill="url(#prefix__logoIncartC)" d="M512.7 434.1L686.9-67.4l390.9 135.7-174.1 501.6-391-135.8z" clip-path="url(#prefix__b)"></path><path fill="#fff" fill-opacity="0.1" d="M796.6 177.4c-.1-16.3 1.1-32.2 3.5-47.6-4-9.8-17.2-26.4-31.2-35.6-26.2-17.3-46.5-17-53.2-16.3-8.4 10.9-15.9 22.6-22.5 34.7 39.2 6.1 92.3 39.4 103.4 64.8m69.8 199.1c-9.9-12.3-19-25.7-27.2-40 3.4 26.2-27.1 84.4-58.8 109.1 12.2 7.7 25 14.4 38.4 20 5.3-2.2 20-11.1 36.8-39.3 15.6-26.1 10.8-49.8 10.8-49.8M779.9 61.2c19.4 12.4 26.7 28.4 28.4 32.5 3.2-10.7 7-21.1 11.4-31h-.2c2.9-6.4 3.8-13.9 1.8-21.2-4.5-16.7-21.6-26.7-38.3-22.2-2.5.7-4.9 1.7-7.1 2.9v-.1c-13.7 9.1-26.3 19.4-37.8 30.8 7.8-2.1 26.9-1.1 41.8 8.3m148.8 381.4c-2.5-9.2-9.4-17.1-17.1-21.2-7.3-5.6-13.4-11.3-20.3-17.8.7 4.1 3 23.1-7.9 44-7.8 14.9-23.7 25.8-32.1 29 13.6 3.6 27.6 6.1 41.8 7.3v-.2c4 .5 8.2.2 12.4-.9 17.5-4.6 27.9-22.6 23.2-40.2m-120.9-183c-18.4-68.6-70.9-116.5-126.5-121.2-19.6 48.9-24.1 104.4-9.4 159.2 14.4 53.8 45.1 98.9 85.4 131.3 46.8-31.3 69.1-99.9 50.5-169.3"></path><defs><linearGradient id="prefix__logoIncartA" x2="1" gradientUnits="userSpaceOnUse" gradientTransform="rotate(155.225 462.135 195.98) scale(292.88)"><stop offset="0" stop-color="#9d5d00"></stop><stop offset="1" stop-color="#e58035"></stop></linearGradient><linearGradient id="prefix__logoIncartC" x2="1" gradientUnits="userSpaceOnUse" gradientTransform="rotate(-70.855 905.876 32.88) scale(830.632)"><stop offset="0" stop-color="#ce7014"></stop><stop offset="0" stop-color="#ce7014"></stop><stop offset="1" stop-color="#fbbd47"></stop></linearGradient></defs></svg>