<svg width="215" height="215" viewBox="0 0 215 215" fill="none" xmlns="http://www.w3.org/2000/svg">
<rect width="215" height="215" rx="15" fill="#FF6C1A"/>
<path d="M38.0305 70.0016C34.7313 70.0016 32.0615 67.3228 32.0615 64.0153C32.0615 60.7079 34.7313 58.022 38.0305 58.022H57.5439C61.1676 58.022 64.5427 59.2773 67.2319 61.4392C69.9104 63.5922 71.866 66.6234 72.6595 70.1822L89.4697 145.295C89.6654 146.159 90.1098 146.866 90.7093 147.347C91.2983 147.823 92.0847 148.094 92.9841 148.094H143.54C146.834 148.094 149.503 150.78 149.503 154.088C149.503 157.395 146.834 160.076 143.54 160.076H92.9841C89.3603 160.076 85.9853 158.826 83.2961 156.662C80.6176 154.509 78.662 151.478 77.8685 147.914L61.0583 72.808C60.8626 71.944 60.4182 71.2322 59.8187 70.7506C59.2297 70.2796 58.4397 70.0034 57.5439 70.0034H38.0305V70.0016Z" fill="white"/>
<path fill-rule="evenodd" clip-rule="evenodd" d="M68.0384 78.5674H158.681C159.73 78.5674 160.634 79.0047 161.29 79.8263C161.945 80.6496 162.17 81.6287 161.941 82.6574L150.349 134.454C150.003 135.999 148.674 137.074 147.09 137.074H79.6308C78.0508 137.074 76.7159 135.999 76.3721 134.454L64.7797 82.6574C64.5505 81.6287 64.7744 80.6496 65.4304 79.8263C66.0846 79.0029 66.9892 78.5674 68.0402 78.5674H68.0384Z" fill="white"/>
<path fill-rule="evenodd" clip-rule="evenodd" d="M81.8117 168.605C88.65 168.605 94.2328 163.004 94.2328 156.133C94.2328 149.261 88.65 143.661 81.8117 143.661C74.9734 143.661 69.3853 149.266 69.3853 156.133C69.3853 162.999 74.9681 168.605 81.8117 168.605Z" fill="white"/>
<path fill-rule="evenodd" clip-rule="evenodd" d="M81.8113 161.492C84.7509 161.492 87.1455 159.082 87.1455 156.133C87.1455 153.183 84.7509 150.773 81.8113 150.773C78.8718 150.773 76.4736 153.183 76.4736 156.133C76.4736 159.082 78.8736 161.492 81.8113 161.492Z" fill="#FF6C1A"/>
<path fill-rule="evenodd" clip-rule="evenodd" d="M143.234 168.605C150.077 168.605 155.655 163.004 155.655 156.133C155.655 149.261 150.077 143.661 143.234 143.661C136.39 143.661 130.812 149.266 130.812 156.133C130.812 162.999 136.39 168.605 143.234 168.605Z" fill="white"/>
<path fill-rule="evenodd" clip-rule="evenodd" d="M143.233 161.492C146.172 161.492 148.57 159.082 148.57 156.133C148.57 153.183 146.17 150.773 143.233 150.773C140.295 150.773 137.895 153.183 137.895 156.133C137.895 159.082 140.295 161.492 143.233 161.492Z" fill="#FF6C1A"/>
</svg>
