<svg width="197" height="190" viewBox="0 0 197 190" fill="none" xmlns="http://www.w3.org/2000/svg">
<path d="M2.97604 157.136C2.75078 139.602 4.32185 122.28 9.64155 105.458C16.7171 83.0714 28.9854 63.7365 45.1408 46.782C58.622 32.6265 73.7205 20.3924 90.5518 10.355C99.6259 4.93486 109.543 1.88351 120.131 1.08052C123.03 0.862563 125.907 1.0461 128.627 2.14161C132.341 3.63861 134.565 6.36303 134.94 10.3722C135.293 14.152 133.427 16.7961 130.296 18.6889C127.068 20.6505 123.44 21.6198 119.877 22.7325C117.612 23.438 115.302 24.0345 113.275 25.3136C112.483 25.8126 111.53 26.4263 111.871 27.4816C112.229 28.6115 113.332 28.1011 114.124 28.0036C120.806 27.1834 127.108 24.8662 133.514 22.9792C142.351 20.3752 151.182 17.7483 160.493 17.4672C168.441 17.2263 176.181 18.2415 183.349 21.9009C194.133 27.4013 198.551 38.4367 194.537 49.8391C191.1 59.6012 184.042 66.2373 175.268 71.2846C166.206 76.4983 156.288 78.9704 145.996 80.3125C136.644 81.5285 127.189 81.8497 117.924 83.708C113.552 84.5856 109.202 85.6065 105.165 87.5681C102.462 88.8815 101.671 90.1835 102.375 91.6805C103.12 93.2636 105.021 93.6937 107.545 92.8793C109.665 92.1967 111.553 90.9349 113.76 90.4588C116.659 89.8337 119.501 89.914 122.198 91.2045C127.466 93.7282 128.159 100.089 123.55 103.657C120.997 105.63 117.959 106.547 114.88 107.333C105.691 109.685 96.2642 111.073 87.2017 113.952C68.8051 119.797 53.2966 130.367 38.9374 142.877C28.067 152.352 19.7149 163.508 14.8053 177.107C13.7367 180.061 12.4082 182.923 11.1953 185.825C10.5022 187.488 9.64155 189.031 7.44667 188.636C5.22291 188.228 4.52401 186.519 4.29297 184.552C3.6114 178.65 3.16665 172.731 2.99337 166.794C2.90095 163.577 2.97604 160.359 2.97604 157.136ZM9.80905 170.207C10.1845 169.788 10.3058 169.702 10.3635 169.588C17.0926 155.036 27.5125 143.456 39.7518 133.287C54.2149 121.265 70.1105 111.904 88.3396 106.662C97.1306 104.133 106.147 102.624 115.019 100.468C116.272 100.164 117.549 99.9054 118.669 99.2C119.23 98.8501 119.807 98.4428 119.674 97.6972C119.547 97.0089 118.854 96.9688 118.311 96.8197C116.781 96.4067 115.313 96.7336 113.875 97.267C111.987 97.9611 110.132 98.7583 108.215 99.3605C104.813 100.433 101.647 99.8423 98.875 97.6112C94.0405 93.7339 94.1906 87.0576 99.2677 83.5417C103.837 80.3756 109.139 78.936 114.476 77.7257C124.336 75.4946 134.472 75.311 144.436 73.8599C153.302 72.5694 162.007 70.7455 170.047 66.6101C176.216 63.4383 181.616 59.3029 185.423 53.4583C193.128 41.6142 188.778 29.7071 175.268 25.5545C167.286 23.1053 159.194 23.5126 151.119 25.13C141.652 27.0285 132.607 30.4469 123.284 32.8502C119.877 33.7277 116.469 34.72 112.905 34.7143C109.907 34.7085 107.325 33.722 105.962 30.8656C104.541 27.8889 104.969 25.0268 106.984 22.4056C108.145 20.8971 109.636 19.7959 111.316 18.9298C113.563 17.7655 115.972 17.0542 118.375 16.2971C120.974 15.4827 123.683 14.9435 126.109 13.6358C127.333 12.9762 128.512 12.1445 128.269 10.5042C128.021 8.80641 126.692 8.22138 125.208 7.9346C124.509 7.80268 123.775 7.774 123.059 7.774C116.809 7.774 110.745 8.88671 104.859 10.9458C95.3632 14.261 87.167 19.7959 79.1788 25.7093C61.7411 38.6317 46.0188 53.2174 34.1145 71.4969C25.8779 84.1382 18.6579 97.3015 14.3663 111.83C10.5657 124.683 9.39895 137.927 9.10438 151.257C8.96575 157.48 9.26033 163.686 9.80905 170.213V170.207Z" fill="white" stroke="white"/>
<path d="M63.0525 12.365C62.9139 16.0842 60.5053 19.5191 57.2302 22.482C50.4376 28.6296 43.7432 34.8681 37.4242 41.4934C25.9876 53.4757 15.6254 66.2372 7.67183 80.773C7.53321 81.0232 7.38881 81.2677 7.23863 81.5066C6.23938 83.0762 4.76649 83.7529 2.98747 83.2297C1.12181 82.6781 0.861884 81.0857 1.05249 79.4252C1.64742 74.1989 2.8835 69.1034 4.4488 64.0818C8.8848 49.8532 16.7864 37.4557 25.4851 25.4847C30.5854 18.467 36.2517 11.984 43.6623 7.1842C46.5157 5.33595 49.5308 3.87441 52.956 3.39671C58.5645 2.61192 63.0005 6.16624 63.0525 12.3707V12.365ZM13.6038 59.3901C14.3432 58.5371 14.6839 58.1788 14.9901 57.7921C26.3458 43.3587 38.4581 29.6191 52.6556 17.7732C54.0303 16.6245 55.3126 15.3734 56.1386 13.7583C56.6873 12.6891 56.901 11.5745 56.1386 10.5395C55.3242 9.42485 54.1516 9.54427 53.008 9.91392C52.0549 10.221 51.0903 10.5452 50.2066 11.0001C46.0074 13.1612 42.5533 16.2719 39.2725 19.576C30.6951 28.2201 24.0931 38.2575 18.242 48.8011C16.4687 51.9971 14.915 55.3126 13.598 59.3901H13.6038Z" fill="white" stroke="white"/>
<path d="M118.566 117.739C122.675 117.871 126.767 118.146 130.729 119.281C132.769 119.866 134.712 120.642 136.457 121.798C140.669 124.585 142.249 128.924 140.475 132.824C138.606 136.946 134.036 139.063 128.916 138.118C127.603 137.875 126.261 137.564 125.068 137.031C116.878 133.368 108.149 133.051 99.3171 133.299C93.2928 133.468 87.314 134.075 81.3522 134.861C79.1812 135.146 77.5842 134.402 77.0386 132.84C76.3907 130.971 77.4137 129.889 79.0619 129.013C88.7803 123.872 98.8908 119.735 110.087 118.299C112.894 117.94 115.719 117.761 118.555 117.739H118.566ZM99.749 127.203C100.704 127.203 101.664 127.213 102.619 127.203C110.757 127.097 118.748 127.725 126.244 131.077C127.83 131.784 129.558 132.249 131.354 132.301C132.649 132.338 133.712 131.979 134.286 130.776C134.883 129.53 134.587 128.464 133.599 127.53C132.314 126.321 130.689 125.672 128.967 125.224C123.147 123.714 117.231 123.487 111.275 124.231C107.313 124.728 103.42 125.509 99.749 127.208V127.203Z" fill="white" stroke="white"/>
</svg>
