<svg width="192" height="37" viewBox="0 0 192 37" fill="none" xmlns="http://www.w3.org/2000/svg">
<path d="M19.5491 33.6923C19.5491 34.0268 19.5367 34.3117 19.4872 34.547C19.4501 34.7824 19.3882 34.993 19.3015 35.154C19.2025 35.315 19.1034 35.4265 18.992 35.5008C18.8682 35.5751 18.7444 35.6123 18.5958 35.6123H1.74568C1.32474 35.6123 0.928553 35.4761 0.557132 35.1912C0.18571 34.9063 0 34.4108 0 33.7047V2.42784C0 1.72179 0.18571 1.2387 0.557132 0.941418C0.928553 0.668906 1.32474 0.520264 1.74568 0.520264H18.3977C18.5463 0.520264 18.6701 0.557424 18.7939 0.631746C18.9177 0.706067 19.0044 0.817549 19.0787 0.978578C19.1406 1.13961 19.2025 1.35018 19.252 1.58554C19.3015 1.82089 19.3139 2.13056 19.3139 2.48978C19.3139 2.82422 19.3015 3.09674 19.252 3.35686C19.2025 3.59221 19.1406 3.80279 19.0787 3.96382C19.0044 4.11246 18.9053 4.22394 18.7939 4.29826C18.6701 4.37258 18.5463 4.40975 18.3977 4.40975H4.6799V15.3969H16.4663C16.6149 15.3969 16.7387 15.4341 16.8625 15.5208C16.9739 15.6075 17.073 15.719 17.1597 15.8676C17.2463 16.0163 17.2958 16.2144 17.333 16.4622C17.3701 16.7223 17.3825 17.0196 17.3825 17.354C17.3825 17.6885 17.3701 17.961 17.333 18.1963C17.2958 18.4317 17.2339 18.6175 17.1597 18.7661C17.073 18.9148 16.9739 19.0139 16.8625 19.0758C16.7387 19.1378 16.6149 19.1625 16.4663 19.1625H4.6799V31.7104H18.5958C18.7444 31.7104 18.8682 31.7476 18.992 31.8219C19.1158 31.8962 19.2148 32.0077 19.3015 32.1564C19.3882 32.3174 19.4501 32.5156 19.4872 32.7633C19.5244 32.9987 19.5491 33.3083 19.5491 33.6676" fill="#000827"/>
<path d="M65.2343 34.9186C65.2343 35.0673 65.1971 35.1912 65.1228 35.3026C65.0485 35.4141 64.9124 35.5008 64.7267 35.5628C64.5409 35.6247 64.3057 35.6866 64.021 35.7238C63.7362 35.7733 63.3524 35.7857 62.8943 35.7857C62.461 35.7857 62.0896 35.7733 61.78 35.7238C61.4705 35.6742 61.2353 35.6247 61.062 35.5628C60.8886 35.5008 60.7524 35.4141 60.6782 35.3026C60.6039 35.2035 60.5667 35.0673 60.5667 34.9186V4.3602H60.5048L48.1613 35.0673C48.1117 35.1912 48.0375 35.3026 47.9384 35.3893C47.8394 35.4761 47.6908 35.5628 47.5051 35.6247C47.307 35.6866 47.0842 35.7362 46.8242 35.7609C46.5642 35.7857 46.2546 35.7981 45.8956 35.7981C45.5118 35.7981 45.1899 35.7857 44.9299 35.7486C44.6575 35.7114 44.4347 35.6618 44.2614 35.5999C44.0756 35.538 43.9395 35.4637 43.8404 35.3646C43.7537 35.2655 43.6795 35.1788 43.6423 35.0673L31.8064 4.3602H31.7816V34.931C31.7816 35.0797 31.7445 35.2035 31.6702 35.315C31.5959 35.4265 31.4721 35.5132 31.2864 35.5751C31.1007 35.6371 30.8531 35.699 30.5559 35.7362C30.2588 35.7857 29.875 35.7981 29.4169 35.7981C28.9588 35.7981 28.5874 35.7857 28.3026 35.7362C28.0055 35.6866 27.7703 35.6371 27.5846 35.5751C27.4112 35.5132 27.2874 35.4265 27.2255 35.315C27.1636 35.2159 27.1265 35.0797 27.1265 34.931V2.65081C27.1265 1.88282 27.3246 1.35018 27.7331 1.02813C28.1417 0.706067 28.5874 0.532651 29.0826 0.532651H31.9549C32.5368 0.532651 33.0568 0.582198 33.4901 0.69368C33.9359 0.792775 34.3197 0.966191 34.6415 1.20154C34.9758 1.43689 35.2482 1.73418 35.4711 2.10578C35.6939 2.465 35.892 2.88616 36.0529 3.38163L46.0813 28.7871H46.2175L56.6297 3.44357C56.8278 2.91093 57.0506 2.44023 57.2982 2.06862C57.5335 1.68463 57.7935 1.38735 58.0906 1.16438C58.363 0.929031 58.6972 0.780388 59.0315 0.668906C59.3782 0.569811 59.7868 0.520264 60.2448 0.520264H63.2533C63.5257 0.520264 63.7857 0.557424 64.0333 0.644132C64.2686 0.730841 64.4914 0.854709 64.6647 1.02813C64.8381 1.20154 64.9743 1.41212 65.0857 1.68463C65.1971 1.94476 65.2466 2.26681 65.2466 2.65081V34.9186H65.2343Z" fill="#000827"/>
<path d="M98.9833 17.9981C98.9833 16.0162 98.8099 14.1706 98.4509 12.4612C98.1042 10.7518 97.5223 9.27778 96.6928 8.01431C95.8633 6.76324 94.7738 5.78468 93.4119 5.07862C92.0377 4.37257 90.3415 4.02574 88.3235 4.02574C86.3054 4.02574 84.6093 4.40973 83.235 5.16533C81.8608 5.92093 80.7465 6.93666 79.8922 8.18773C79.0379 9.45119 78.4189 10.9252 78.0475 12.6222C77.6761 14.3069 77.4904 16.0782 77.4904 17.9362C77.4904 20.0048 77.6637 21.8876 78.0104 23.6218C78.357 25.356 78.9265 26.8548 79.7437 28.1058C80.5484 29.3569 81.6379 30.3231 82.9998 31.0168C84.3617 31.7104 86.0702 32.0573 88.1254 32.0573C90.1806 32.0573 91.8767 31.6733 93.2634 30.9177C94.65 30.1621 95.7643 29.1463 96.6185 27.8457C97.4604 26.5575 98.0671 25.0587 98.4261 23.3617C98.7852 21.6647 98.9585 19.8686 98.9585 17.9734M103.898 17.6513C103.898 20.4879 103.564 23.052 102.896 25.3188C102.215 27.598 101.224 29.5303 99.8994 31.1282C98.5623 32.7138 96.9033 33.9525 94.8976 34.8071C92.892 35.6742 90.552 36.0954 87.8778 36.0954C85.2035 36.0954 82.9626 35.7114 81.0436 34.9186C79.1122 34.1383 77.5275 32.9863 76.2647 31.4875C75.0018 29.9887 74.0733 28.1306 73.4666 25.9134C72.8476 23.6961 72.5381 21.132 72.5381 18.2459C72.5381 15.3597 72.8724 12.9567 73.5409 10.7023C74.2219 8.44785 75.2123 6.52789 76.5618 4.94237C77.8989 3.36923 79.5703 2.14293 81.576 1.28824C83.5693 0.433541 85.9092 0 88.5959 0C91.2825 0 93.4243 0.383994 95.3433 1.16437C97.2623 1.94474 98.8595 3.07195 100.122 4.55837C101.397 6.0448 102.351 7.89045 102.97 10.0953C103.589 12.2878 103.898 14.8023 103.898 17.6389V17.6513Z" fill="#000827"/>
<path d="M131.891 33.9524C132.127 34.3487 132.263 34.6708 132.312 34.8938C132.362 35.1291 132.312 35.3149 132.139 35.4512C131.978 35.5874 131.718 35.6865 131.347 35.7237C130.975 35.7732 130.48 35.7856 129.861 35.7856C129.291 35.7856 128.833 35.7856 128.512 35.7485C128.19 35.7237 127.93 35.6618 127.732 35.5874C127.546 35.5255 127.397 35.4264 127.298 35.3397C127.212 35.2406 127.112 35.1043 127.051 34.9433L119.238 20.9833L111.352 34.9433C111.265 35.1043 111.166 35.2406 111.055 35.3521C110.943 35.4636 110.795 35.5503 110.609 35.6122C110.411 35.6741 110.151 35.7237 109.829 35.7485C109.507 35.7732 109.074 35.7856 108.529 35.7856C107.922 35.7856 107.452 35.7732 107.118 35.7237C106.771 35.6741 106.536 35.5874 106.4 35.4512C106.263 35.3273 106.214 35.1415 106.263 34.8938C106.313 34.6584 106.449 34.3487 106.684 33.9524L116.255 17.8123L107.118 2.20478C106.907 1.8084 106.771 1.48634 106.697 1.2386C106.635 1.00325 106.672 0.805059 106.821 0.668803C106.969 0.532547 107.217 0.445839 107.576 0.408678C107.935 0.371518 108.43 0.359131 109.061 0.359131C109.606 0.359131 110.052 0.359131 110.399 0.396291C110.745 0.421065 111.005 0.470613 111.216 0.532547C111.414 0.594482 111.562 0.693577 111.649 0.805059C111.736 0.928927 111.835 1.0528 111.946 1.20144L119.474 14.3191L126.952 1.20144C127.038 1.0528 127.125 0.916541 127.224 0.805059C127.311 0.693577 127.447 0.606869 127.62 0.532547C127.781 0.470613 128.029 0.421065 128.338 0.396291C128.648 0.371518 129.056 0.359131 129.589 0.359131C130.158 0.359131 130.604 0.371518 130.963 0.421065C131.31 0.470613 131.557 0.544934 131.718 0.68119C131.879 0.805059 131.929 0.990862 131.891 1.2386C131.854 1.48634 131.73 1.8084 131.508 2.20478L122.408 17.7008L131.891 33.9524Z" fill="#000827"/>
<path d="M157.904 33.6923C157.904 34.0268 157.891 34.3117 157.854 34.547C157.817 34.7824 157.755 34.993 157.669 35.154C157.582 35.315 157.47 35.4265 157.359 35.5008C157.235 35.5751 157.111 35.6123 156.963 35.6123H140.125C139.704 35.6123 139.308 35.4761 138.937 35.1912C138.565 34.9063 138.379 34.4108 138.379 33.7047V2.42784C138.379 1.72179 138.565 1.2387 138.937 0.941418C139.308 0.668906 139.704 0.520264 140.125 0.520264H156.777C156.926 0.520264 157.049 0.557424 157.173 0.631746C157.297 0.706067 157.384 0.817549 157.458 0.978578C157.52 1.13961 157.594 1.35018 157.631 1.58554C157.681 1.82089 157.693 2.13056 157.693 2.48978C157.693 2.82422 157.681 3.09674 157.631 3.35686C157.582 3.59221 157.52 3.80279 157.458 3.96382C157.384 4.11246 157.285 4.22394 157.173 4.29826C157.049 4.37258 156.926 4.40975 156.777 4.40975H143.047V15.3969H154.833C154.982 15.3969 155.106 15.4341 155.23 15.5208C155.341 15.6075 155.44 15.719 155.527 15.8676C155.613 16.0163 155.663 16.2144 155.7 16.4622C155.737 16.7223 155.75 17.0196 155.75 17.354C155.75 17.6885 155.725 17.961 155.7 18.1963C155.663 18.4317 155.601 18.6175 155.527 18.7661C155.44 18.9148 155.341 19.0139 155.23 19.0758C155.106 19.1378 154.982 19.1625 154.833 19.1625H143.047V31.7104H156.963C157.111 31.7104 157.235 31.7476 157.359 31.8219C157.483 31.8962 157.582 32.0077 157.669 32.1564C157.755 32.3174 157.817 32.5156 157.854 32.7633C157.891 32.9987 157.904 33.3083 157.904 33.6676" fill="#000827"/>
<path d="M192 33.6676C192 34.0268 191.938 34.3489 191.814 34.5966C191.691 34.8444 191.542 35.0549 191.344 35.216C191.146 35.377 190.923 35.4885 190.688 35.5628C190.44 35.6371 190.193 35.6743 189.957 35.6743H188.41C187.927 35.6743 187.506 35.6247 187.134 35.5256C186.775 35.4265 186.429 35.2531 186.095 34.993C185.773 34.7329 185.438 34.3861 185.116 33.9401C184.795 33.4942 184.435 32.912 184.076 32.206L173.367 12.2507C172.798 11.2226 172.24 10.1449 171.671 9.00533C171.101 7.87812 170.569 6.77569 170.074 5.71042H170.024C170.062 7.01104 170.086 8.33644 170.111 9.699C170.123 11.0492 170.136 12.3993 170.136 13.7371V34.9187C170.136 35.0426 170.099 35.1664 170.024 35.2903C169.938 35.4018 169.814 35.4885 169.641 35.5628C169.455 35.6247 169.22 35.6867 168.922 35.7238C168.625 35.7734 168.242 35.7858 167.796 35.7858C167.35 35.7858 166.954 35.7734 166.657 35.7238C166.36 35.6743 166.124 35.6247 165.963 35.5628C165.79 35.5009 165.666 35.4018 165.58 35.2903C165.505 35.1664 165.468 35.0549 165.468 34.9187V2.53938C165.468 1.82094 165.666 1.30069 166.087 0.991017C166.496 0.681345 166.942 0.532702 167.424 0.532702H169.715C170.247 0.532702 170.705 0.582249 171.064 0.668958C171.436 0.755666 171.758 0.904308 172.042 1.11489C172.327 1.31308 172.612 1.61036 172.884 1.98197C173.157 2.35357 173.441 2.81189 173.739 3.38168L181.972 18.7786C182.479 19.72 182.975 20.6366 183.445 21.5409C183.916 22.4327 184.386 23.3122 184.819 24.1916C185.253 25.0463 185.686 25.9134 186.107 26.7557C186.54 27.5857 186.961 28.4403 187.382 29.295H187.407C187.37 27.8582 187.345 26.3841 187.333 24.8358C187.333 23.2874 187.333 21.801 187.333 20.3765V1.35024C187.333 1.22637 187.37 1.1025 187.444 1.0034C187.531 0.891921 187.654 0.805213 187.828 0.718505C188.014 0.631797 188.249 0.58225 188.546 0.545089C188.843 0.507928 189.227 0.483154 189.71 0.483154C190.131 0.483154 190.49 0.495541 190.787 0.545089C191.096 0.58225 191.332 0.631797 191.505 0.718505C191.678 0.805213 191.802 0.891921 191.889 1.0034C191.963 1.1025 192 1.22637 192 1.35024V33.68V33.6676Z" fill="#000827"/>
</svg>
