<svg width="192" height="37" viewBox="0 0 192 37" fill="none" xmlns="http://www.w3.org/2000/svg">
<path d="M19.5491 33.6923C19.5491 34.0268 19.5367 34.3117 19.4872 34.547C19.4501 34.7824 19.3882 34.993 19.3015 35.154C19.2025 35.315 19.1034 35.4265 18.992 35.5008C18.8682 35.5751 18.7444 35.6123 18.5958 35.6123H1.74568C1.32474 35.6123 0.928553 35.4761 0.557132 35.1912C0.18571 34.9063 0 34.4108 0 33.7047V2.42784C0 1.72179 0.18571 1.2387 0.557132 0.941418C0.928553 0.668906 1.32474 0.520264 1.74568 0.520264H18.3977C18.5463 0.520264 18.6701 0.557424 18.7939 0.631746C18.9177 0.706067 19.0044 0.817549 19.0787 0.978578C19.1406 1.13961 19.2025 1.35018 19.252 1.58554C19.3015 1.82089 19.3139 2.13056 19.3139 2.48978C19.3139 2.82422 19.3015 3.09674 19.252 3.35686C19.2025 3.59221 19.1406 3.80279 19.0787 3.96382C19.0044 4.11246 18.9053 4.22394 18.7939 4.29826C18.6701 4.37258 18.5463 4.40975 18.3977 4.40975H4.6799V15.3969H16.4663C16.6149 15.3969 16.7387 15.4341 16.8625 15.5208C16.9739 15.6075 17.073 15.719 17.1597 15.8676C17.2463 16.0163 17.2958 16.2144 17.333 16.4622C17.3701 16.7223 17.3825 17.0196 17.3825 17.354C17.3825 17.6885 17.3701 17.961 17.333 18.1963C17.2958 18.4317 17.2339 18.6175 17.1597 18.7661C17.073 18.9148 16.9739 19.0139 16.8625 19.0758C16.7387 19.1378 16.6149 19.1625 16.4663 19.1625H4.6799V31.7104H18.5958C18.7444 31.7104 18.8682 31.7476 18.992 31.8219C19.1158 31.8962 19.2148 32.0077 19.3015 32.1564C19.3882 32.3174 19.4501 32.5156 19.4872 32.7633C19.5244 32.9987 19.5491 33.3083 19.5491 33.6676" fill="white"/>
<path d="M65.234 34.9186C65.234 35.0673 65.1969 35.1912 65.1226 35.3026C65.0483 35.4141 64.9121 35.5008 64.7264 35.5628C64.5407 35.6247 64.3055 35.6866 64.0207 35.7238C63.736 35.7733 63.3521 35.7857 62.8941 35.7857C62.4607 35.7857 62.0893 35.7733 61.7798 35.7238C61.4703 35.6742 61.2351 35.6247 61.0617 35.5628C60.8884 35.5008 60.7522 35.4141 60.6779 35.3026C60.6036 35.2035 60.5665 35.0673 60.5665 34.9186V4.3602H60.5046L48.161 35.0673C48.1115 35.1912 48.0372 35.3026 47.9382 35.3893C47.8391 35.4761 47.6906 35.5628 47.5049 35.6247C47.3068 35.6866 47.0839 35.7362 46.8239 35.7609C46.5639 35.7857 46.2544 35.7981 45.8954 35.7981C45.5116 35.7981 45.1897 35.7857 44.9297 35.7486C44.6573 35.7114 44.4344 35.6618 44.2611 35.5999C44.0754 35.538 43.9392 35.4637 43.8402 35.3646C43.7535 35.2655 43.6792 35.1788 43.6421 35.0673L31.8061 4.3602H31.7814V34.931C31.7814 35.0797 31.7442 35.2035 31.6699 35.315C31.5957 35.4265 31.4718 35.5132 31.2861 35.5751C31.1004 35.6371 30.8528 35.699 30.5557 35.7362C30.2585 35.7857 29.8747 35.7981 29.4167 35.7981C28.9586 35.7981 28.5871 35.7857 28.3024 35.7362C28.0053 35.6866 27.77 35.6371 27.5843 35.5751C27.411 35.5132 27.2872 35.4265 27.2253 35.315C27.1634 35.2159 27.1262 35.0797 27.1262 34.931V2.65081C27.1262 1.88282 27.3243 1.35018 27.7329 1.02813C28.1414 0.706067 28.5871 0.532651 29.0824 0.532651H31.9547C32.5366 0.532651 33.0566 0.582198 33.4899 0.69368C33.9356 0.792775 34.3194 0.966191 34.6413 1.20154C34.9756 1.43689 35.248 1.73418 35.4708 2.10578C35.6937 2.465 35.8918 2.88616 36.0527 3.38163L46.0811 28.7871H46.2173L56.6294 3.44357C56.8275 2.91093 57.0504 2.44023 57.298 2.06862C57.5332 1.68463 57.7932 1.38735 58.0903 1.16438C58.3627 0.929031 58.697 0.780388 59.0313 0.668906C59.3779 0.569811 59.7865 0.520264 60.2446 0.520264H63.2531C63.5255 0.520264 63.7855 0.557424 64.0331 0.644132C64.2683 0.730841 64.4912 0.854709 64.6645 1.02813C64.8378 1.20154 64.974 1.41212 65.0854 1.68463C65.1969 1.94476 65.2464 2.26681 65.2464 2.65081V34.9186H65.234Z" fill="white"/>
<path d="M98.9835 17.9981C98.9835 16.0162 98.8102 14.1706 98.4511 12.4612C98.1045 10.7518 97.5226 9.27778 96.6931 8.01431C95.8636 6.76324 94.7741 5.78468 93.4122 5.07862C92.0379 4.37257 90.3418 4.02574 88.3237 4.02574C86.3057 4.02574 84.6095 4.40973 83.2353 5.16533C81.861 5.92093 80.7467 6.93666 79.8925 8.18773C79.0382 9.45119 78.4192 10.9252 78.0477 12.6222C77.6763 14.3069 77.4906 16.0782 77.4906 17.9362C77.4906 20.0048 77.6639 21.8876 78.0106 23.6218C78.3573 25.356 78.9268 26.8548 79.7439 28.1058C80.5486 29.3569 81.6381 30.3231 83 31.0168C84.3619 31.7104 86.0704 32.0573 88.1256 32.0573C90.1808 32.0573 91.877 31.6733 93.2636 30.9177C94.6503 30.1621 95.7645 29.1463 96.6188 27.8457C97.4607 26.5575 98.0673 25.0587 98.4264 23.3617C98.7854 21.6647 98.9587 19.8686 98.9587 17.9734M103.899 17.6513C103.899 20.4879 103.564 23.052 102.896 25.3188C102.215 27.598 101.224 29.5303 99.8997 31.1282C98.5626 32.7138 96.9035 33.9525 94.8979 34.8071C92.8922 35.6742 90.5522 36.0954 87.878 36.0954C85.2038 36.0954 82.9629 35.7114 81.0439 34.9186C79.1125 34.1383 77.5278 32.9863 76.2649 31.4875C75.0021 29.9887 74.0735 28.1306 73.4669 25.9134C72.8478 23.6961 72.5383 21.132 72.5383 18.2459C72.5383 15.3597 72.8726 12.9567 73.5412 10.7023C74.2221 8.44785 75.2126 6.52789 76.5621 4.94237C77.8992 3.36923 79.5706 2.14293 81.5762 1.28824C83.5695 0.433541 85.9095 0 88.5961 0C91.2827 0 93.4246 0.383994 95.3436 1.16437C97.2626 1.94474 98.8597 3.07195 100.123 4.55837C101.398 6.0448 102.351 7.89045 102.97 10.0953C103.589 12.2878 103.899 14.8023 103.899 17.6389V17.6513Z" fill="white"/>
<path d="M131.892 33.9524C132.127 34.3487 132.263 34.6708 132.313 34.8938C132.362 35.1291 132.313 35.3149 132.139 35.4512C131.978 35.5874 131.718 35.6865 131.347 35.7237C130.976 35.7732 130.48 35.7856 129.861 35.7856C129.292 35.7856 128.834 35.7856 128.512 35.7485C128.19 35.7237 127.93 35.6618 127.732 35.5874C127.546 35.5255 127.397 35.4264 127.298 35.3397C127.212 35.2406 127.113 35.1043 127.051 34.9433L119.239 20.9833L111.352 34.9433C111.265 35.1043 111.166 35.2406 111.055 35.3521C110.944 35.4636 110.795 35.5503 110.609 35.6122C110.411 35.6741 110.151 35.7237 109.829 35.7485C109.507 35.7732 109.074 35.7856 108.529 35.7856C107.923 35.7856 107.452 35.7732 107.118 35.7237C106.771 35.6741 106.536 35.5874 106.4 35.4512C106.264 35.3273 106.214 35.1415 106.264 34.8938C106.313 34.6584 106.449 34.3487 106.685 33.9524L116.255 17.8123L107.118 2.20478C106.907 1.8084 106.771 1.48634 106.697 1.2386C106.635 1.00325 106.672 0.805059 106.821 0.668803C106.969 0.532547 107.217 0.445839 107.576 0.408678C107.935 0.371518 108.43 0.359131 109.062 0.359131C109.606 0.359131 110.052 0.359131 110.399 0.396291C110.745 0.421065 111.005 0.470613 111.216 0.532547C111.414 0.594482 111.563 0.693577 111.649 0.805059C111.736 0.928927 111.835 1.0528 111.946 1.20144L119.474 14.3191L126.952 1.20144C127.038 1.0528 127.125 0.916541 127.224 0.805059C127.311 0.693577 127.447 0.606869 127.62 0.532547C127.781 0.470613 128.029 0.421065 128.338 0.396291C128.648 0.371518 129.057 0.359131 129.589 0.359131C130.158 0.359131 130.604 0.371518 130.963 0.421065C131.31 0.470613 131.557 0.544934 131.718 0.68119C131.879 0.805059 131.929 0.990862 131.892 1.2386C131.855 1.48634 131.731 1.8084 131.508 2.20478L122.408 17.7008L131.892 33.9524Z" fill="white"/>
<path d="M157.904 33.6923C157.904 34.0268 157.891 34.3117 157.854 34.547C157.817 34.7824 157.755 34.993 157.668 35.154C157.582 35.315 157.47 35.4265 157.359 35.5008C157.235 35.5751 157.111 35.6123 156.963 35.6123H140.125C139.704 35.6123 139.308 35.4761 138.936 35.1912C138.565 34.9063 138.379 34.4108 138.379 33.7047V2.42784C138.379 1.72179 138.565 1.2387 138.936 0.941418C139.308 0.668906 139.704 0.520264 140.125 0.520264H156.777C156.925 0.520264 157.049 0.557424 157.173 0.631746C157.297 0.706067 157.384 0.817549 157.458 0.978578C157.52 1.13961 157.594 1.35018 157.631 1.58554C157.681 1.82089 157.693 2.13056 157.693 2.48978C157.693 2.82422 157.681 3.09674 157.631 3.35686C157.582 3.59221 157.52 3.80279 157.458 3.96382C157.384 4.11246 157.284 4.22394 157.173 4.29826C157.049 4.37258 156.925 4.40975 156.777 4.40975H143.047V15.3969H154.833C154.982 15.3969 155.105 15.4341 155.229 15.5208C155.341 15.6075 155.44 15.719 155.526 15.8676C155.613 16.0163 155.663 16.2144 155.7 16.4622C155.737 16.7223 155.749 17.0196 155.749 17.354C155.749 17.6885 155.725 17.961 155.7 18.1963C155.663 18.4317 155.601 18.6175 155.526 18.7661C155.44 18.9148 155.341 19.0139 155.229 19.0758C155.105 19.1378 154.982 19.1625 154.833 19.1625H143.047V31.7104H156.963C157.111 31.7104 157.235 31.7476 157.359 31.8219C157.483 31.8962 157.582 32.0077 157.668 32.1564C157.755 32.3174 157.817 32.5156 157.854 32.7633C157.891 32.9987 157.904 33.3083 157.904 33.6676" fill="white"/>
<path d="M192 33.6676C192 34.0268 191.938 34.3489 191.814 34.5966C191.691 34.8444 191.542 35.0549 191.344 35.216C191.146 35.377 190.923 35.4885 190.688 35.5628C190.44 35.6371 190.193 35.6743 189.957 35.6743H188.41C187.927 35.6743 187.506 35.6247 187.134 35.5256C186.775 35.4265 186.429 35.2531 186.095 34.993C185.773 34.7329 185.438 34.3861 185.116 33.9401C184.795 33.4942 184.435 32.912 184.076 32.206L173.367 12.2507C172.798 11.2226 172.24 10.1449 171.671 9.00533C171.101 7.87812 170.569 6.77569 170.074 5.71042H170.024C170.062 7.01104 170.086 8.33644 170.111 9.699C170.123 11.0492 170.136 12.3993 170.136 13.7371V34.9187C170.136 35.0426 170.099 35.1664 170.024 35.2903C169.938 35.4018 169.814 35.4885 169.641 35.5628C169.455 35.6247 169.22 35.6867 168.922 35.7238C168.625 35.7734 168.242 35.7858 167.796 35.7858C167.35 35.7858 166.954 35.7734 166.657 35.7238C166.36 35.6743 166.124 35.6247 165.963 35.5628C165.79 35.5009 165.666 35.4018 165.58 35.2903C165.505 35.1664 165.468 35.0549 165.468 34.9187V2.53938C165.468 1.82094 165.666 1.30069 166.087 0.991017C166.496 0.681345 166.942 0.532702 167.424 0.532702H169.715C170.247 0.532702 170.705 0.582249 171.064 0.668958C171.436 0.755666 171.758 0.904308 172.042 1.11489C172.327 1.31308 172.612 1.61036 172.884 1.98197C173.157 2.35357 173.441 2.81189 173.739 3.38168L181.972 18.7786C182.479 19.72 182.975 20.6366 183.445 21.5409C183.916 22.4327 184.386 23.3122 184.819 24.1916C185.253 25.0463 185.686 25.9134 186.107 26.7557C186.54 27.5857 186.961 28.4403 187.382 29.295H187.407C187.37 27.8582 187.345 26.3841 187.333 24.8358C187.333 23.2874 187.333 21.801 187.333 20.3765V1.35024C187.333 1.22637 187.37 1.1025 187.444 1.0034C187.531 0.891921 187.654 0.805213 187.828 0.718505C188.014 0.631797 188.249 0.58225 188.546 0.545089C188.843 0.507928 189.227 0.483154 189.71 0.483154C190.131 0.483154 190.49 0.495541 190.787 0.545089C191.096 0.58225 191.332 0.631797 191.505 0.718505C191.678 0.805213 191.802 0.891921 191.889 1.0034C191.963 1.1025 192 1.22637 192 1.35024V33.68V33.6676Z" fill="white"/>
</svg>
