<svg width="202" height="187" viewBox="0 0 202 187" fill="none" xmlns="http://www.w3.org/2000/svg">
<path fill-rule="evenodd" clip-rule="evenodd" d="M201.289 102.759C201.406 102.272 201.524 101.786 201.639 101.299L201.644 101.309V85.7535C201.563 85.4672 201.473 85.1818 201.383 84.8963C201.181 84.2543 200.978 83.6112 200.876 82.9531C200.705 81.858 200.576 80.7546 200.447 79.6518C200.223 77.7355 200 75.8209 199.556 73.9544C198.067 67.6834 196.094 61.5682 193.506 55.6037C187.482 41.7263 178.265 30.2701 166.628 20.7467C157.027 12.8858 146.106 7.08232 134.043 3.80912C127.872 2.13615 121.475 1.10743 115.115 0.29692C111.398 -0.172578 107.576 0.011568 103.801 0.193457C103.44 0.210837 103.08 0.228197 102.72 0.244964C98.743 0.432004 94.7711 0.868432 90.8203 1.38279C82.382 2.47906 74.4329 5.19633 66.7469 8.72932C54.5524 14.3405 44.1781 22.2741 35.3926 32.3276C30.6684 37.7309 26.607 43.5604 23.2928 49.8782C19.5155 57.0844 16.5011 64.5816 14.9386 72.5984C14.7501 73.5639 14.4572 74.5112 14.1278 75.5769C13.9608 76.1168 13.7845 76.6871 13.6076 77.3055C13.2945 76.8329 13.0084 76.4179 12.7464 76.0378C12.225 75.2813 11.7991 74.6634 11.4454 74.0064C10.4143 72.084 5.62702 70.8942 3.68578 71.7723C-0.291375 73.5699 -1.05419 78.2615 1.41838 81.8672C5.06937 87.1875 8.6888 92.5337 12.2661 97.9007C15.8856 103.335 19.4734 104.052 23.5979 100.311C27.1163 97.1248 30.4656 93.755 33.8153 90.3847C35.4791 88.7106 37.1431 87.0365 38.8279 85.3846C41.4162 82.844 40.9637 78.2615 39.2856 76.4639C37.2233 74.2506 33.4776 73.9388 30.6053 75.9495C29.6746 76.6005 28.8195 77.3566 27.8422 78.2207C27.361 78.6461 26.8502 79.0978 26.2861 79.576C26.4292 78.8486 26.5509 78.1785 26.6655 77.5482C26.892 76.3012 27.0903 75.2095 27.3699 74.1362C29.2217 67.0235 31.81 60.1966 35.4504 53.7645C40.4535 44.9216 46.9084 37.253 54.7523 30.7689C61.0231 25.5837 68.0568 21.5987 75.6061 18.4554C84.9597 14.5639 94.7553 12.6312 104.824 12.3402C109.277 12.2122 113.773 12.7554 118.229 13.2937C118.654 13.345 119.078 13.3963 119.502 13.4469C128.587 14.5276 137.094 17.5046 145.201 21.6663C154.581 26.4774 162.562 32.9562 169.438 40.8691C175.924 48.3351 180.685 56.7363 184.131 65.9221C186.514 72.271 187.977 78.8486 188.592 85.5561C188.981 89.8009 188.797 94.1184 188.592 98.3891C188.429 101.86 188.129 105.372 187.403 108.765C185.699 116.761 183.058 124.445 179.044 131.651C174.167 140.406 167.933 148.022 160.215 154.506C154.06 159.676 147.358 163.9 139.967 167.147C129.961 171.537 119.528 173.782 108.607 174.047C101.978 174.208 95.3814 173.886 88.9264 172.416C80.3671 170.462 72.2234 167.313 64.7899 162.648C56.7198 157.582 49.4757 151.55 43.9782 143.715C42.1369 141.086 39.6959 139.377 36.5868 139.917C31.9836 140.717 29.9529 145.877 32.6622 149.664C37.3759 156.252 43.0575 161.9 49.3705 166.997C57.3827 173.465 66.3208 178.224 76.0322 181.622C84.0128 184.412 92.2249 186.199 100.7 186.423C105.714 186.553 110.753 186.386 115.756 186.023C119.702 185.737 123.669 185.212 127.514 184.334C136.942 182.183 145.89 178.733 154.286 173.927C164.366 168.155 173.104 160.772 180.448 151.898C188.34 142.359 194.158 131.61 197.599 119.738C198.452 116.797 199.022 113.775 199.592 110.753C199.872 109.268 200.152 107.783 200.466 106.307C200.719 105.119 201.004 103.939 201.289 102.759ZM148.023 101.883C146.989 94.9512 144.909 88.1002 141.667 80.9408C135.07 66.3613 125.839 52.3068 112.622 36.7067C110.855 34.6249 109.006 34.1807 107.745 34.177C106.501 34.177 104.642 34.6139 102.842 36.703C95.9066 44.7509 89.5842 53.2688 84.0502 62.0253C77.0457 73.0985 72.4542 82.637 69.5973 92.0434C66.7038 101.575 66.2051 109.421 68.0241 116.734C72.0471 132.878 82.2862 143.253 98.4664 147.571C99.659 147.888 100.816 148.046 101.936 148.199L101.936 148.199L101.965 148.203L101.98 148.205C102.844 148.321 103.657 148.431 104.437 148.606L104.576 148.639L110.73 148.662L110.946 148.617C111.776 148.453 112.616 148.328 113.529 148.193L113.539 148.192C114.738 148.015 115.978 147.832 117.228 147.534C137.6 142.725 151.125 122.671 148.019 101.879L148.023 101.883ZM134.223 126.783C129.253 133.785 122.007 138.451 113.818 139.923C105.28 141.458 96.7061 139.725 89.6685 135.04C82.6346 130.355 77.7314 123.115 75.8648 114.649C75.3624 112.369 75.1313 110.067 75.1753 107.794C75.2267 101.938 76.5799 95.8397 79.4367 88.5995C83.5771 78.1064 89.4925 67.8116 98.6131 55.222C101.503 51.2348 104.561 47.3026 107.723 43.521C119.502 57.7884 127.816 70.5211 133.849 83.5182C137.003 90.3105 139.005 96.7172 139.977 103.106C141.235 111.378 139.192 119.785 134.226 126.783H134.223ZM80.4208 111.018C80.6591 113.779 81.5576 116.4 82.6835 118.915C84.9719 124.03 88.9583 128.303 93.6634 131.285C97.3967 133.649 101.68 135.206 105.997 136.102C106.965 136.303 107.948 136.245 108.824 135.731C109.583 135.287 110.309 134.413 110.511 133.535C110.724 132.595 110.68 131.542 110.141 130.704C109.642 129.93 108.879 129.21 107.948 129.016C105.686 128.548 103.461 127.903 101.318 127.038C99.3162 126.152 97.4087 125.065 95.6502 123.76C94.2135 122.602 92.9002 121.297 91.7424 119.857C90.6616 118.396 89.7391 116.819 88.9996 115.159C88.4571 113.802 88.0264 112.392 87.7627 110.956L87.7507 110.89C87.6544 109.951 87.3794 109.114 86.6882 108.422C86.0537 107.787 85.0086 107.306 84.0954 107.346C83.1822 107.387 82.1627 107.703 81.5026 108.422C80.8755 109.105 80.3474 110.06 80.4281 111.018H80.4208Z" fill="white"/>
</svg>
