<svg width="169" height="188" viewBox="0 0 169 188" fill="none" xmlns="http://www.w3.org/2000/svg">
<path d="M73.1969 187.812C71.1182 187.444 69.0542 187.013 66.9656 186.719C61.1863 185.901 55.6675 184.191 50.2618 182.035C42.9788 179.13 36.2068 175.274 30.1769 170.321C22.2845 163.834 15.6355 156.229 10.5442 147.273C5.86087 139.042 2.95651 130.237 1.14804 121.031C0.617289 118.336 0.597631 115.539 0.39123 112.785C0.219228 110.497 -0.0854596 108.189 0.0226555 105.906C0.523916 95.7005 2.51422 85.8279 6.58819 76.3816C9.8513 68.8167 14.0973 61.8692 19.4834 55.7007C25.1545 49.2088 31.666 43.6184 39.1702 39.2137C46.4335 34.9462 54.1146 31.8056 62.351 30.0467C65.8451 29.3019 69.3785 28.7336 73.0053 28.0672V14.7013C70.7693 14.7013 68.5578 14.5102 66.3955 14.7454C63.2749 15.0835 59.3484 12.0065 58.8913 7.92522C58.5719 5.07858 60.3411 1.87918 63.9383 0.443617C64.6362 0.164343 65.447 0.0614524 66.2088 0.0614524C75.4035 0.0320551 84.6031 -0.0757349 93.7929 0.0908496C98.0192 0.169242 99.98 1.81059 101.341 5.22557C102.226 7.44016 101.258 10.9629 99.3116 12.6631C97.8521 13.9419 96.2058 14.8091 94.1418 14.7258C92.0778 14.6425 90.0039 14.7062 87.817 14.7062C87.817 19.0129 87.7679 23.1579 87.8858 27.2931C87.9006 27.7537 88.7655 28.4739 89.3405 28.5964C93.6946 29.5175 98.1125 30.1642 102.442 31.198C109.759 32.9472 116.522 36.078 122.807 40.1789C125.392 41.8644 127.869 43.7115 130.385 45.5047C131.358 46.1955 132.125 45.98 132.921 45.1715C135.624 42.4229 138.366 39.7135 141.128 36.9501C139.265 34.9217 137.221 33.0207 135.574 30.8257C133.447 27.9888 134.139 24.5494 136.341 21.8791C138.469 19.302 143.491 19.3706 145.634 20.7669C146.435 21.2912 147.182 21.9281 147.86 22.5994C153.944 28.6356 160.008 34.6865 166.073 40.7424C168.776 43.442 169.955 47.2343 167.419 50.8648C164.942 54.4072 159.591 55.1029 156.485 52.0652C154.868 50.4875 153.335 48.8315 151.89 47.342C148.602 50.6247 145.457 53.7653 142.307 56.9109C144.189 59.6056 146.352 62.5208 148.322 65.5634C153.232 73.1283 156.475 81.3939 158.544 90.1445C160.338 97.7241 160.805 105.436 160.318 113.143C159.581 124.877 156.377 135.994 150.652 146.328C146.327 154.132 140.862 161.075 134.238 167.053C125.421 175 115.308 180.82 103.966 184.343C98.5745 186.019 93.0262 187.209 87.3354 187.469C87.1487 187.479 86.9767 187.689 86.7949 187.807H73.1822L73.1969 187.812ZM145.723 107.846C145.516 88.7383 138.494 72.5649 124.321 59.6791C110.192 46.8325 93.3604 41.4136 74.396 42.9962C56.9649 44.4513 42.3645 51.8839 30.9485 65.1323C18.8642 79.1548 13.4437 95.5046 15.1342 113.937C16.5594 129.478 22.9283 142.986 34.0199 153.966C47.5884 167.4 64.1153 173.868 83.3008 173.128C115.804 171.869 145.968 144.505 145.727 107.846H145.723Z" fill="white"/>
<path d="M87.8266 100.527C95.5716 100.527 103.1 100.468 110.624 100.551C113.858 100.585 116.61 101.786 117.942 104.98C119.838 109.542 117.077 114.931 111.882 115.083C101.046 115.397 90.1953 115.206 79.3494 115.166C76.5925 115.157 73.2261 111.864 73.2114 109.12C73.1426 96.0484 73.1475 82.9764 73.1033 69.9044C73.0984 67.8564 72.7298 65.779 72.9903 63.7702C73.3736 60.7766 75.7472 57.8957 79.1725 57.5723C85.1385 57.0138 87.9052 61.3744 87.861 66.0583C87.7529 77.4742 87.8266 88.8902 87.8266 100.517V100.527Z" fill="white"/>
</svg>
