<svg width="168" height="229" viewBox="0 0 168 229" fill="none" xmlns="http://www.w3.org/2000/svg">
<g clip-path="url(#clip0_32_441)">
<path d="M135.291 93.9312C133.853 84.3145 130.962 74.8098 126.454 64.8773C117.28 44.6506 104.444 25.1522 86.0654 3.50949C83.6074 0.62142 81.0372 0.00509361 79.283 0C77.5542 0 74.9688 0.606139 72.4649 3.5044C62.8216 14.6696 54.03 26.4868 46.3348 38.635C36.5947 53.9973 30.21 67.2305 26.2375 80.2803C22.2139 93.5033 21.5204 104.388 24.0498 114.535C29.644 136.931 43.8819 151.326 66.3811 157.316C68.0538 157.759 69.6754 157.978 71.2461 158.192C72.4547 158.355 73.5919 158.508 74.6832 158.752L74.877 158.798L83.434 158.829L83.7349 158.768C84.8925 158.538 86.0654 158.365 87.3403 158.177C89.0078 157.932 90.7315 157.678 92.4704 157.265C120.798 150.592 139.606 122.771 135.286 93.9261L135.291 93.9312ZM116.102 128.476C109.192 138.19 99.1151 144.663 87.7278 146.706C75.8561 148.835 63.9333 146.431 54.1473 139.932C44.3664 133.432 37.5483 123.388 34.9526 111.642C34.254 108.479 33.9327 105.285 33.9939 102.132C34.0653 94.0076 35.947 85.5471 39.9196 75.5025C45.677 60.945 53.9025 46.6625 66.5851 29.1966C70.6036 23.6649 74.8566 18.2096 79.2524 12.9632C95.6321 32.757 107.193 50.4216 115.582 68.453C119.967 77.8761 122.752 86.7645 124.103 95.6274C125.852 107.103 123.012 118.768 116.107 128.476H116.102Z" fill="white"/>
<path d="M8.71 193.934C9.96959 193.292 11.2496 192.696 12.55 192.141L11.168 192.722C16.6551 190.409 22.438 188.942 28.3331 188.148L26.793 188.356C37.0737 187.007 47.4921 187.638 57.7422 188.998L56.2021 188.789C70.1239 190.659 83.7805 194.046 97.692 195.956C111.787 197.892 126.163 198.697 140.146 195.498C147.642 193.786 154.97 190.781 161.35 186.467C162.609 185.616 163.599 184.506 164.012 183.008C164.394 181.623 164.221 179.779 163.43 178.551C161.824 176.061 158.188 174.66 155.506 176.478C152.527 178.49 149.366 180.202 146.056 181.607L147.438 181.027C141.982 183.319 136.224 184.755 130.37 185.545L131.91 185.336C121.283 186.737 110.497 186.095 99.9103 184.684L101.45 184.893C89.033 183.222 76.8298 180.329 64.4583 178.388C57.6759 177.324 50.8374 176.458 43.9734 176.152C37.2879 175.852 30.6381 176.178 24.0188 177.171C16.6449 178.276 9.51573 180.563 2.87102 183.945C0.168259 185.321 -0.836352 189.34 0.795504 191.861C2.57525 194.617 5.82876 195.411 8.7202 193.934H8.71Z" fill="white"/>
<path d="M11.5101 224.282C12.7696 223.64 14.0496 223.044 15.35 222.489L13.968 223.069C19.4551 220.757 25.238 219.29 31.1331 218.495L29.593 218.704C39.8737 217.354 50.2921 217.986 60.5422 219.346L59.0021 219.137C72.9239 221.007 86.5805 224.394 100.492 226.304C114.587 228.239 128.963 229.044 142.946 225.845C150.442 224.134 157.77 221.129 164.15 216.815C165.409 215.964 166.399 214.853 166.812 213.356C167.194 211.971 167.021 210.127 166.23 208.899C164.624 206.408 160.988 205.008 158.306 206.826C155.328 208.838 152.166 210.549 148.856 211.955L150.238 211.375C144.782 213.667 139.024 215.103 133.17 215.893L134.71 215.684C124.083 217.084 113.297 216.443 102.71 215.032L104.25 215.241C91.833 213.57 79.6298 210.677 67.2583 208.736C60.4759 207.671 53.6374 206.806 46.7734 206.5C40.0879 206.199 33.4381 206.525 26.8189 207.519C19.4449 208.624 12.3158 210.911 5.67107 214.293C2.96831 215.668 1.9637 219.687 3.59555 222.209C5.37529 224.964 8.62881 225.759 11.5203 224.282H11.5101Z" fill="white"/>
<path d="M41.291 106.604C41.6224 110.434 42.8718 114.071 44.4374 117.56C47.6195 124.656 53.1627 130.585 59.7054 134.721C64.8968 138.001 70.853 140.161 76.8552 141.404C78.2015 141.684 79.5682 141.602 80.787 140.889C81.8426 140.273 82.8523 139.061 83.1328 137.843C83.4285 136.539 83.3673 135.077 82.6177 133.916C81.9242 132.841 80.8635 131.843 79.5682 131.573C76.2382 130.885 72.9643 129.923 69.8229 128.614L71.0417 129.128C67.7933 127.758 64.7132 126.016 61.9186 123.866L62.9487 124.661C60.5826 122.822 58.4458 120.703 56.61 118.33L57.4055 119.358C55.5952 117.005 54.0857 114.423 52.9332 111.687L53.4483 112.905C52.5865 110.852 51.9031 108.708 51.5003 106.517C51.4442 106.217 51.3983 105.916 51.3575 105.616L51.5411 106.971C51.5258 106.849 51.5105 106.726 51.5003 106.604C51.383 105.229 51.0107 104.006 50.0061 103.003C49.1239 102.122 47.6705 101.454 46.4007 101.51C45.1309 101.566 43.7132 102.005 42.7953 103.003C41.9233 103.95 41.189 105.275 41.3012 106.604H41.291Z" fill="white"/>
</g>
<defs>
<clipPath id="clip0_32_441">
<rect width="168" height="229" fill="white"/>
</clipPath>
</defs>
</svg>
