<svg width="256" height="177" viewBox="0 0 256 177" fill="none" xmlns="http://www.w3.org/2000/svg">
<path d="M255.987 53.364C251.92 61.152 245.583 67.2033 240.061 73.8778C232.942 82.4876 225.797 91.0709 218.626 99.6343C214.953 104.015 211.307 108.43 207.454 112.652C201.05 119.658 192.99 123.913 183.695 125.755C180.597 126.372 177.378 126.624 174.213 126.637C152.818 126.71 131.423 126.829 110.028 126.59C102.736 126.511 97.868 130.156 93.5209 135.134C93 135.731 92.8998 137.036 93.1202 137.885C94.4023 142.796 93.0133 147.19 89.6946 150.584C81.4745 158.982 72.9138 167.048 64.48 175.24C64.0393 175.671 63.5318 176.029 63.051 176.42H59.5519C58.6037 175.565 57.6221 174.743 56.7206 173.848C47.8194 165.026 38.9048 156.224 30.0503 147.356C20.6283 137.918 11.2663 128.413 1.87758 118.942C-1.08059 115.959 -0.105666 113.44 1.80412 111.505C9.84394 103.353 17.9572 95.2664 26.1974 87.3128C29.1088 84.5025 32.9484 83.5414 36.975 83.6872C38.4775 83.7403 39.3255 83.2697 40.0868 81.9507C48.2 67.9523 60.3332 59.2298 75.892 54.7692C84.0854 52.4228 92.419 51.8926 100.739 52.5421C106.382 52.9796 111.904 54.8686 117.487 56.0683C119.39 56.4726 121.326 57.0227 123.249 57.0293C140.077 57.1022 156.905 57.1089 173.732 57.0558C180.737 57.0359 186.874 58.9846 191.822 64.3334C201.137 54.8885 210.372 45.4038 219.761 36.0715C222.285 33.5661 224.943 30.8221 228.094 29.3706C238.318 24.658 250.778 29.238 255.018 39.929C255.239 40.4858 255.666 40.963 256 41.48V53.3839L255.987 53.364ZM87.0302 127.81C87.3574 127.406 87.7514 126.895 88.1721 126.405C94.3956 119.107 102.415 116.556 111.898 116.668C132.465 116.92 153.038 116.801 173.605 116.695C177.084 116.675 180.663 116.39 184.022 115.535C191.635 113.593 197.718 109.199 202.673 103.127C209.738 94.471 216.909 85.901 224.108 77.3508C230.525 69.7286 237.096 62.2257 243.493 54.5836C246.277 51.2563 247.319 47.5976 245.63 43.2099C243.526 37.7351 234.418 35.1369 229.617 40.0881C225.937 43.8859 222.292 47.7103 218.592 51.4949C211.534 58.7195 204.422 65.891 197.431 73.1686C196.643 73.9904 196.269 75.3558 196.049 76.529C195.635 78.7427 195.801 81.1023 195.14 83.2233C192.59 91.4155 184.263 96.9632 175.695 96.8837C162.287 96.7577 148.878 96.8439 135.469 96.8306C132.371 96.8306 130.488 94.935 130.521 91.8861C130.555 88.5721 132.585 86.8952 136.725 86.8886C149.386 86.8687 162.04 86.8886 174.7 86.8753C175.775 86.8753 176.871 86.8687 177.932 86.703C183.695 85.8082 187.475 79.6839 185.725 74.1429C184.256 69.4834 180.63 66.9912 175.101 66.9846C157.112 66.9647 139.122 67.0178 121.139 66.9183C119.083 66.9051 116.939 66.4014 114.996 65.6988C109.474 63.6905 103.798 62.451 97.9414 62.3384C93.7412 62.2588 89.5009 62.3649 85.3341 62.8554C79.0705 63.5977 73.0607 65.5198 67.5517 68.5555C58.9376 73.3078 52.2934 80.1081 47.579 88.6384C60.7005 101.662 73.7685 114.634 87.0369 127.803L87.0302 127.81ZM35.6996 93.0725C34.1838 94.0667 32.6813 94.7494 31.5728 95.8298C25.6231 101.616 19.8269 107.555 13.8438 113.308C12.2612 114.826 12.5217 115.648 13.9306 117.033C25.6364 128.566 37.2888 140.145 48.9212 151.757C52.6072 155.436 56.1998 159.207 59.7723 162.992C60.8474 164.132 61.5752 164.271 62.7906 163.071C68.9273 157.033 75.1775 151.108 81.3476 145.103C84.2924 142.239 84.3458 139.263 81.4811 136.42C67.772 122.786 54.0563 109.152 40.267 95.5978C39.1319 94.4843 37.3957 93.9806 35.7063 93.0725H35.6996Z" fill="white"/>
<mask id="path-2-outside-1_32_464" maskUnits="userSpaceOnUse" x="85.4863" y="0" width="118" height="34" fill="black">
<rect fill="white" x="85.4863" width="118" height="34"/>
<path fill-rule="evenodd" clip-rule="evenodd" d="M178.124 32.3901L178.119 32.396C176.863 33.768 174.68 33.5626 173.398 32.396C172.022 31.1433 172.222 28.9959 173.398 27.71L173.646 27.4383C174.53 26.4694 175.41 25.5056 176.296 24.5418C180.529 19.9221 184.763 15.2957 188.996 10.6694C191.654 7.75973 194.312 4.85674 196.969 1.95374L196.969 1.95366L196.97 1.9535C198.225 0.581503 200.408 0.786972 201.691 1.9535C203.066 3.2062 202.866 5.35368 201.691 6.63952L201.442 6.91158L201.44 6.91378C200.556 7.8818 199.677 8.84476 198.793 9.80772C194.559 14.4275 190.325 19.0538 186.092 23.6802C183.436 26.5879 180.78 29.489 178.124 32.3901ZM150.012 32.3906L150.007 32.396C148.752 33.7681 146.568 33.5626 145.286 32.396C143.911 31.1434 144.111 28.9959 145.286 27.71L145.537 27.4354C146.421 26.4675 147.3 25.5047 148.184 24.5418C152.418 19.9221 156.651 15.2957 160.885 10.6694C163.543 7.75975 166.2 4.85675 168.858 1.95376L168.858 1.95352C170.113 0.581519 172.297 0.786988 173.579 1.95352C174.955 3.20622 174.754 5.3537 173.579 6.63954L173.331 6.91141L173.329 6.91317L173.324 6.91897C172.442 7.88524 171.564 8.84649 170.681 9.80773C166.449 14.4261 162.216 19.0512 157.984 23.6762L157.982 23.6782L157.98 23.6802C155.324 26.5881 152.668 29.4893 150.012 32.3906ZM120.281 32.396C122.938 29.493 125.596 26.5899 128.254 23.6802C132.487 19.0538 136.721 14.4275 140.954 9.80773C141.839 8.84453 142.719 7.88133 143.603 6.91306L143.853 6.63954C145.028 5.3537 145.228 3.20622 143.853 1.95352C142.57 0.786988 140.387 0.581519 139.131 1.95352L139.126 1.95922L139.126 1.95984C136.47 4.86081 133.814 7.76178 131.158 10.6694C126.925 15.2957 122.691 19.9221 118.458 24.5418C117.573 25.5048 116.694 26.4678 115.81 27.4359L115.56 27.71C114.384 28.9959 114.184 31.1434 115.56 32.396C116.842 33.5626 119.025 33.7681 120.281 32.396ZM92.169 32.3922L92.1654 32.396C90.91 33.7681 88.7265 33.5626 87.4444 32.396C86.0688 31.1434 86.2691 28.9959 87.4444 27.71L87.6925 27.4383C88.577 26.4694 89.4569 25.5056 90.3424 24.5418C94.5701 19.9286 98.7978 15.3087 103.025 10.6888L103.043 10.6694C105.699 7.76158 108.355 4.8604 111.011 1.95922L111.016 1.95352C112.272 0.581519 114.455 0.786988 115.737 1.95352C117.113 3.20622 116.913 5.3537 115.737 6.63954L115.491 6.90878C114.606 7.87849 113.726 8.84311 112.839 9.80773C108.611 14.4217 104.383 19.0424 100.154 23.663L100.138 23.6802C97.482 26.5886 94.8255 29.4904 92.169 32.3922Z"/>
</mask>
<path fill-rule="evenodd" clip-rule="evenodd" d="M178.124 32.3901L178.119 32.396C176.863 33.768 174.68 33.5626 173.398 32.396C172.022 31.1433 172.222 28.9959 173.398 27.71L173.646 27.4383C174.53 26.4694 175.41 25.5056 176.296 24.5418C180.529 19.9221 184.763 15.2957 188.996 10.6694C191.654 7.75973 194.312 4.85674 196.969 1.95374L196.969 1.95366L196.97 1.9535C198.225 0.581503 200.408 0.786972 201.691 1.9535C203.066 3.2062 202.866 5.35368 201.691 6.63952L201.442 6.91158L201.44 6.91378C200.556 7.8818 199.677 8.84476 198.793 9.80772C194.559 14.4275 190.325 19.0538 186.092 23.6802C183.436 26.5879 180.78 29.489 178.124 32.3901ZM150.012 32.3906L150.007 32.396C148.752 33.7681 146.568 33.5626 145.286 32.396C143.911 31.1434 144.111 28.9959 145.286 27.71L145.537 27.4354C146.421 26.4675 147.3 25.5047 148.184 24.5418C152.418 19.9221 156.651 15.2957 160.885 10.6694C163.543 7.75975 166.2 4.85675 168.858 1.95376L168.858 1.95352C170.113 0.581519 172.297 0.786988 173.579 1.95352C174.955 3.20622 174.754 5.3537 173.579 6.63954L173.331 6.91141L173.329 6.91317L173.324 6.91897C172.442 7.88524 171.564 8.84649 170.681 9.80773C166.449 14.4261 162.216 19.0512 157.984 23.6762L157.982 23.6782L157.98 23.6802C155.324 26.5881 152.668 29.4893 150.012 32.3906ZM120.281 32.396C122.938 29.493 125.596 26.5899 128.254 23.6802C132.487 19.0538 136.721 14.4275 140.954 9.80773C141.839 8.84453 142.719 7.88133 143.603 6.91306L143.853 6.63954C145.028 5.3537 145.228 3.20622 143.853 1.95352C142.57 0.786988 140.387 0.581519 139.131 1.95352L139.126 1.95922L139.126 1.95984C136.47 4.86081 133.814 7.76178 131.158 10.6694C126.925 15.2957 122.691 19.9221 118.458 24.5418C117.573 25.5048 116.694 26.4678 115.81 27.4359L115.56 27.71C114.384 28.9959 114.184 31.1434 115.56 32.396C116.842 33.5626 119.025 33.7681 120.281 32.396ZM92.169 32.3922L92.1654 32.396C90.91 33.7681 88.7265 33.5626 87.4444 32.396C86.0688 31.1434 86.2691 28.9959 87.4444 27.71L87.6925 27.4383C88.577 26.4694 89.4569 25.5056 90.3424 24.5418C94.5701 19.9286 98.7978 15.3087 103.025 10.6888L103.043 10.6694C105.699 7.76158 108.355 4.8604 111.011 1.95922L111.016 1.95352C112.272 0.581519 114.455 0.786988 115.737 1.95352C117.113 3.20622 116.913 5.3537 115.737 6.63954L115.491 6.90878C114.606 7.87849 113.726 8.84311 112.839 9.80773C108.611 14.4217 104.383 19.0424 100.154 23.663L100.138 23.6802C97.482 26.5886 94.8255 29.4904 92.169 32.3922Z" fill="white"/>
<path d="M178.119 32.396L178.488 32.7336L178.488 32.7334L178.119 32.396ZM178.124 32.3901L177.755 32.0525L177.755 32.0527L178.124 32.3901ZM173.398 32.396L173.061 32.7657L173.061 32.7659L173.398 32.396ZM173.398 27.71L173.767 28.0473L173.767 28.0471L173.398 27.71ZM173.646 27.4383L174.015 27.7754L174.015 27.7754L173.646 27.4383ZM176.296 24.5418L176.664 24.8801L176.664 24.8796L176.296 24.5418ZM188.996 10.6694L189.365 11.0069L189.366 11.0066L188.996 10.6694ZM196.969 1.95374L197.338 2.29146L197.346 2.28237L196.969 1.95374ZM196.969 1.95366L196.594 1.62383L196.593 1.62504L196.969 1.95366ZM196.97 1.9535L196.601 1.6159L196.594 1.62367L196.97 1.9535ZM201.691 1.9535L202.027 1.58382L202.027 1.58368L201.691 1.9535ZM201.691 6.63952L201.322 6.30219L201.321 6.3024L201.691 6.63952ZM201.442 6.91158L201.811 7.24921L201.811 7.24871L201.442 6.91158ZM201.44 6.91378L201.071 6.57616L201.071 6.57666L201.44 6.91378ZM198.793 9.80772L198.424 9.46943L198.424 9.4699L198.793 9.80772ZM186.092 23.6802L185.723 23.3426L185.723 23.343L186.092 23.6802ZM150.007 32.396L149.638 32.0585L149.638 32.0585L150.007 32.396ZM150.012 32.3906L149.643 32.053L149.643 32.053L150.012 32.3906ZM145.286 32.396L144.95 32.7657L144.95 32.7659L145.286 32.396ZM145.286 27.71L145.655 28.0474L145.655 28.0472L145.286 27.71ZM145.537 27.4354L145.906 27.7725L145.906 27.7725L145.537 27.4354ZM148.184 24.5418L148.552 24.8801L148.553 24.8796L148.184 24.5418ZM160.885 10.6694L161.254 11.0069L161.254 11.0066L160.885 10.6694ZM168.858 1.95376L169.227 2.29146L169.234 2.28337L168.858 1.95376ZM168.858 1.95352L168.489 1.61592L168.482 1.6239L168.858 1.95352ZM173.579 1.95352L173.916 1.58384L173.916 1.58369L173.579 1.95352ZM173.579 6.63954L173.21 6.30221L173.21 6.30241L173.579 6.63954ZM173.331 6.91141L172.962 6.57429L172.961 6.57448L173.331 6.91141ZM173.329 6.91317L172.96 6.57623L172.96 6.57631L173.329 6.91317ZM173.324 6.91897L173.693 7.25609L173.693 7.25583L173.324 6.91897ZM170.681 9.80773L170.313 9.46945L170.312 9.46992L170.681 9.80773ZM157.984 23.6762L158.353 24.0138L158.353 24.0137L157.984 23.6762ZM157.982 23.6782L158.351 24.0161L158.351 24.0158L157.982 23.6782ZM157.98 23.6802L157.612 23.3423L157.611 23.343L157.98 23.6802ZM128.254 23.6802L127.885 23.3426L127.885 23.343L128.254 23.6802ZM120.281 32.396L119.912 32.0584L119.912 32.0585L120.281 32.396ZM140.954 9.80773L140.586 9.46945L140.586 9.46992L140.954 9.80773ZM143.603 6.91306L143.234 6.57594L143.234 6.57594L143.603 6.91306ZM143.853 6.63954L143.483 6.30221L143.483 6.30241L143.853 6.63954ZM143.853 1.95352L144.189 1.58384L144.189 1.58369L143.853 1.95352ZM139.131 1.95352L139.5 2.29107L139.5 2.29105L139.131 1.95352ZM139.126 1.95922L139.494 2.29847L139.495 2.29678L139.126 1.95922ZM139.126 1.95984L138.758 1.62059L138.757 1.62222L139.126 1.95984ZM131.158 10.6694L131.527 11.0069L131.528 11.0066L131.158 10.6694ZM118.458 24.5418L118.826 24.8801L118.826 24.8797L118.458 24.5418ZM115.81 27.4359L116.179 27.773L116.179 27.773L115.81 27.4359ZM115.56 27.71L115.929 28.0474L115.929 28.0472L115.56 27.71ZM115.56 32.396L115.223 32.7657L115.223 32.7659L115.56 32.396ZM92.1654 32.396L91.7965 32.0585L91.7965 32.0585L92.1654 32.396ZM92.169 32.3922L91.8002 32.0546L91.8001 32.0546L92.169 32.3922ZM87.4444 32.396L87.1077 32.7657L87.1079 32.7659L87.4444 32.396ZM87.4444 27.71L87.8134 28.0474L87.8136 28.0472L87.4444 27.71ZM87.6925 27.4383L88.0617 27.7754L88.0617 27.7754L87.6925 27.4383ZM90.3424 24.5418L90.7106 24.8801L90.7111 24.8797L90.3424 24.5418ZM103.025 10.6888L103.394 11.0263L103.394 11.0263L103.025 10.6888ZM103.043 10.6694L103.412 11.0069L103.412 11.0066L103.043 10.6694ZM111.011 1.95922L111.38 2.29685L111.38 2.29678L111.011 1.95922ZM111.016 1.95352L111.385 2.29107L111.385 2.29105L111.016 1.95352ZM115.737 1.95352L116.074 1.58384L116.074 1.58369L115.737 1.95352ZM115.737 6.63954L115.368 6.30221L115.368 6.30241L115.737 6.63954ZM115.491 6.90878L115.122 6.57166L115.122 6.57166L115.491 6.90878ZM112.839 9.80773L112.471 9.46945L112.471 9.46992L112.839 9.80773ZM100.154 23.663L100.523 24.0005L100.523 24.0005L100.154 23.663ZM100.138 23.6802L99.7696 23.3426L99.7693 23.343L100.138 23.6802ZM178.488 32.7334L178.493 32.7275L177.755 32.0527L177.75 32.0587L178.488 32.7334ZM173.061 32.7659C174.493 34.0683 177 34.3593 178.488 32.7336L177.75 32.0585C176.727 33.1768 174.867 33.0569 173.734 32.0262L173.061 32.7659ZM173.029 27.3727C171.716 28.8084 171.431 31.281 173.061 32.7657L173.734 32.0264C172.614 31.0057 172.728 29.1833 173.767 28.0473L173.029 27.3727ZM173.276 27.1012L173.028 27.3729L173.767 28.0471L174.015 27.7754L173.276 27.1012ZM175.928 24.2035C175.041 25.168 174.161 26.1324 173.276 27.1012L174.015 27.7754C174.9 26.8064 175.779 25.8432 176.664 24.8801L175.928 24.2035ZM188.628 10.3318C184.394 14.9582 180.161 19.5844 175.927 24.204L176.664 24.8796C180.898 20.2597 185.132 15.6332 189.365 11.0069L188.628 10.3318ZM196.601 1.61612C193.943 4.51908 191.285 7.42229 188.627 10.3322L189.366 11.0066C192.023 8.09718 194.68 5.1944 197.338 2.29136L196.601 1.61612ZM196.593 1.62504L196.592 1.62511L197.346 2.28237L197.346 2.28229L196.593 1.62504ZM196.594 1.62367L196.594 1.62383L197.345 2.28349L197.345 2.28333L196.594 1.62367ZM202.027 1.58368C200.596 0.28128 198.088 -0.00976288 196.601 1.61598L197.338 2.29103C198.362 1.17277 200.221 1.29266 201.354 2.32333L202.027 1.58368ZM202.06 6.97685C203.372 5.54115 203.658 3.06858 202.027 1.58382L201.354 2.32318C202.475 3.34382 202.36 5.16621 201.322 6.30219L202.06 6.97685ZM201.811 7.24871L202.06 6.97664L201.321 6.3024L201.073 6.57446L201.811 7.24871ZM201.809 7.25141L201.811 7.24921L201.073 6.57396L201.071 6.57616L201.809 7.25141ZM199.161 10.146C200.046 9.18236 200.926 8.21883 201.809 7.2509L201.071 6.57666C200.187 7.54477 199.308 8.50715 198.424 9.46943L199.161 10.146ZM186.461 24.0177C190.694 19.3913 194.928 14.7651 199.161 10.1455L198.424 9.4699C194.19 14.0898 189.956 18.7163 185.723 23.3426L186.461 24.0177ZM178.493 32.7277C181.149 29.8267 183.805 26.9253 186.461 24.0174L185.723 23.343C183.067 26.2504 180.411 29.1513 177.755 32.0525L178.493 32.7277ZM150.376 32.7336L150.381 32.7281L149.643 32.053L149.638 32.0585L150.376 32.7336ZM144.95 32.7659C146.381 34.0683 148.889 34.3593 150.376 32.7336L149.638 32.0585C148.615 33.1768 146.755 33.0569 145.623 32.0262L144.95 32.7659ZM144.917 27.3727C143.605 28.8084 143.319 31.281 144.95 32.7657L145.623 32.0264C144.502 31.0057 144.617 29.1833 145.655 28.0474L144.917 27.3727ZM145.168 27.0983L144.917 27.3729L145.655 28.0472L145.906 27.7725L145.168 27.0983ZM147.816 24.2036C146.931 25.1671 146.051 26.1305 145.168 27.0983L145.906 27.7725C146.79 26.8045 147.668 25.8423 148.552 24.8801L147.816 24.2036ZM160.516 10.3318C156.283 14.9582 152.049 19.5844 147.816 24.204L148.553 24.8796C152.787 20.2598 157.02 15.6333 161.254 11.0069L160.516 10.3318ZM168.489 1.61613C165.831 4.5191 163.174 7.4223 160.516 10.3322L161.254 11.0066C163.912 8.0972 166.569 5.19441 169.227 2.29138L168.489 1.61613ZM168.482 1.6239L168.482 1.62414L169.234 2.28337L169.234 2.28314L168.482 1.6239ZM173.916 1.58369C172.484 0.281296 169.977 -0.00974619 168.489 1.61599L169.227 2.29105C170.25 1.17279 172.11 1.29268 173.243 2.32335L173.916 1.58369ZM173.948 6.97686C175.26 5.54117 175.546 3.0686 173.916 1.58384L173.242 2.3232C174.363 3.34383 174.248 5.16623 173.21 6.30221L173.948 6.97686ZM173.7 7.24854L173.948 6.97666L173.21 6.30241L172.962 6.57429L173.7 7.24854ZM173.699 7.2501L173.7 7.24835L172.961 6.57448L172.96 6.57623L173.699 7.2501ZM173.693 7.25583L173.699 7.25003L172.96 6.57631L172.955 6.58211L173.693 7.25583ZM171.049 10.146C171.933 9.1841 172.811 8.22227 173.693 7.25609L172.955 6.58185C172.072 7.54822 171.195 8.50888 170.313 9.46945L171.049 10.146ZM158.353 24.0137C162.585 19.3887 166.817 14.7638 171.05 10.1455L170.312 9.46992C166.08 14.0885 161.847 18.7136 157.615 23.3386L158.353 24.0137ZM158.351 24.0158L158.353 24.0138L157.615 23.3386L157.613 23.3406L158.351 24.0158ZM158.349 24.0181L158.351 24.0161L157.614 23.3403L157.612 23.3423L158.349 24.0181ZM150.381 32.7282C153.037 29.827 155.693 26.9255 158.349 24.0174L157.611 23.343C154.955 26.2506 152.299 29.1517 149.643 32.053L150.381 32.7282ZM127.885 23.343C125.227 26.2524 122.57 29.1553 119.912 32.0584L120.649 32.7337C123.307 29.8306 125.965 26.9273 128.623 24.0174L127.885 23.343ZM140.586 9.46992C136.352 14.0898 132.118 18.7163 127.885 23.3426L128.623 24.0177C132.856 19.3914 137.09 14.7651 141.323 10.1455L140.586 9.46992ZM143.234 6.57594C142.349 7.5443 141.471 8.50692 140.586 9.46945L141.323 10.146C142.208 9.18214 143.088 8.21835 143.972 7.25018L143.234 6.57594ZM143.483 6.30241L143.234 6.57594L143.972 7.25019L144.222 6.97666L143.483 6.30241ZM143.516 2.3232C144.637 3.34383 144.522 5.16623 143.483 6.30221L144.222 6.97686C145.534 5.54117 145.82 3.0686 144.189 1.58384L143.516 2.3232ZM139.5 2.29105C140.524 1.17278 142.383 1.29268 143.516 2.32335L144.189 1.58369C142.758 0.281296 140.25 -0.00974572 138.763 1.61599L139.5 2.29105ZM139.495 2.29678L139.5 2.29107L138.763 1.61597L138.757 1.62167L139.495 2.29678ZM139.493 2.29909L139.494 2.29847L138.759 1.61998L138.758 1.6206L139.493 2.29909ZM131.528 11.0066C134.183 8.09923 136.839 5.19847 139.495 2.29747L138.757 1.62222C136.101 4.52315 133.445 7.42434 130.789 10.3322L131.528 11.0066ZM118.826 24.8797C123.06 20.2598 127.294 15.6333 131.527 11.0069L130.79 10.3318C126.556 14.9582 122.322 19.5844 118.089 24.204L118.826 24.8797ZM116.179 27.773C117.063 26.8049 117.942 25.8424 118.826 24.8801L118.089 24.2036C117.204 25.1672 116.324 26.1308 115.441 27.0988L116.179 27.773ZM115.929 28.0472L116.179 27.773L115.441 27.0988L115.19 27.3729L115.929 28.0472ZM115.896 32.0264C114.775 31.0057 114.89 29.1833 115.929 28.0474L115.191 27.3727C113.878 28.8084 113.593 31.281 115.223 32.7657L115.896 32.0264ZM119.912 32.0585C118.889 33.1768 117.029 33.0569 115.896 32.0262L115.223 32.7659C116.655 34.0683 119.162 34.3593 120.65 32.7336L119.912 32.0585ZM92.5343 32.7336L92.5378 32.7297L91.8001 32.0546L91.7965 32.0585L92.5343 32.7336ZM87.1079 32.7659C88.5393 34.0683 91.0467 34.3593 92.5343 32.7336L91.7965 32.0585C90.7733 33.1768 88.9136 33.0569 87.7809 32.0262L87.1079 32.7659ZM87.0753 27.3727C85.7631 28.8084 85.4773 31.281 87.1077 32.7657L87.781 32.0264C86.6603 31.0057 86.7751 29.1833 87.8134 28.0474L87.0753 27.3727ZM87.3232 27.1012L87.0751 27.3729L87.8136 28.0472L88.0617 27.7754L87.3232 27.1012ZM89.9742 24.2036C89.0881 25.168 88.2077 26.1324 87.3232 27.1012L88.0617 27.7754C88.9464 26.8064 89.8257 25.8432 90.7106 24.8801L89.9742 24.2036ZM102.657 10.3512C98.4289 14.9712 94.2013 19.5909 89.9738 24.204L90.7111 24.8797C94.9389 20.2662 99.1667 15.6462 103.394 11.0263L102.657 10.3512ZM102.674 10.3319L102.657 10.3513L103.394 11.0263L103.412 11.0069L102.674 10.3319ZM110.642 1.6216C107.986 4.52274 105.33 7.42413 102.674 10.3322L103.412 11.0066C106.068 8.09903 108.724 5.19806 111.38 2.29685L110.642 1.6216ZM110.647 1.61597L110.642 1.62167L111.38 2.29678L111.385 2.29107L110.647 1.61597ZM116.074 1.58369C114.642 0.281296 112.135 -0.00974619 110.647 1.61599L111.385 2.29105C112.408 1.17279 114.268 1.29268 115.401 2.32335L116.074 1.58369ZM116.106 6.97686C117.419 5.54117 117.704 3.0686 116.074 1.58384L115.401 2.3232C116.521 3.34383 116.407 5.16623 115.368 6.30221L116.106 6.97686ZM115.861 7.24591L116.107 6.97666L115.368 6.30241L115.122 6.57166L115.861 7.24591ZM113.207 10.146C114.094 9.18072 114.976 8.21551 115.861 7.24591L115.122 6.57166C114.237 7.54146 113.357 8.5055 112.471 9.46945L113.207 10.146ZM100.523 24.0005C104.751 19.3799 108.98 14.7594 113.208 10.1455L112.471 9.46992C108.242 14.0841 104.014 18.7048 99.7854 23.3254L100.523 24.0005ZM100.507 24.0177L100.523 24.0005L99.7854 23.3254L99.7696 23.3426L100.507 24.0177ZM92.5378 32.7298C95.1942 29.828 97.8509 26.9261 100.508 24.0174L99.7693 23.343C97.113 26.2512 94.4567 29.1527 91.8002 32.0546L92.5378 32.7298Z" fill="white" mask="url(#path-2-outside-1_32_464)"/>
</svg>
