<svg width="182" height="177" viewBox="0 0 182 177" fill="none" xmlns="http://www.w3.org/2000/svg">
<g clip-path="url(#clip0_32_446)">
<path d="M36.3667 114.78C27.8507 111.895 20.4462 107.549 14.3528 101.149C6.19591 92.5924 1.385 82.4774 0.0682689 70.6955C-0.216738 68.1639 0.404576 66.1898 2.17162 64.3693C16.5473 49.5552 33.7503 44.3953 53.8319 49.3845C56.6135 50.0729 57.2235 49.8169 57.4116 46.8017C58.7055 25.9459 68.846 10.9212 87.759 1.80747C90.0961 0.681046 92.1481 0.766381 94.4168 1.87574C112.988 10.9667 123.117 25.7695 124.508 46.3637C124.707 49.2935 124.855 50.2436 128.338 49.3675C148.414 44.327 165.617 49.595 179.936 64.4717C181.612 66.2126 182.239 68.1184 181.919 70.5135C179.132 91.3978 167.852 105.734 148.42 113.687C146.071 114.649 145.758 115.081 147.217 117.362C158.538 135.089 159.176 153.294 149.275 171.88C148.084 174.121 146.402 175.447 143.928 175.913C123.584 179.714 106.968 173.029 93.5846 157.783C91.4869 155.388 90.8314 154.967 88.4944 157.657C75.1903 172.989 58.5687 179.668 38.2135 175.948C35.5972 175.47 33.8643 174.07 32.6217 171.726C22.8517 153.231 23.5528 135.152 34.6282 117.442C35.1469 116.611 35.7055 115.798 36.3781 114.768L36.3667 114.78ZM92.5928 106.593C91.3216 110.126 90.6319 113.243 90.2842 116.458C88.8763 129.48 93.8696 140.397 101.741 150.194C110.799 161.463 122.712 166.487 137.219 165.514C139.647 165.349 140.713 164.279 141.494 162.226C147.394 146.683 145.159 132.45 134.854 119.399C133.679 117.908 132.391 117.783 130.784 117.994C125.779 118.648 120.808 118.398 115.855 117.487C107.271 115.912 99.6666 112.202 92.5928 106.599V106.593ZM40.3112 58.7088C30.5127 58.7259 20.5317 62.5887 13.4978 68.9205C11.9131 70.3485 11.4001 71.6683 11.9473 73.8245C15.9773 89.5943 25.8556 99.6752 41.3315 104.5C43.4234 105.154 44.877 104.892 46.6212 103.293C56.0891 94.6064 67.3697 90.26 80.2235 90.0096C84.2307 89.93 84.2022 89.9755 82.8056 86.2777C75.8401 67.7827 56.357 59.3061 40.3055 58.7088H40.3112ZM113.256 56.8826C114.037 36.4648 107.835 23.4598 93.8753 14.2777C91.8346 12.9351 90.2215 12.8896 88.1923 14.2265C74.5291 23.2379 68.0423 35.8675 68.5895 52.1892C68.6579 54.1804 69.3248 55.2954 71.109 56.3194C82.4579 62.8219 90.1987 72.3396 94.3427 84.7416C95.5511 88.3541 95.5625 88.394 98.5836 85.8282C108.718 77.2151 113.222 66.0704 113.25 56.8826H113.256ZM82.2926 101.405C80.5826 101.405 79.2431 101.291 77.932 101.433C75.9484 101.644 73.9419 101.877 72.021 102.372C54.8351 106.809 44.6661 118.648 39.0571 134.657C35.7568 144.084 36.8056 153.675 40.7957 162.891C41.474 164.462 42.3119 165.269 44.1645 165.429C58.7796 166.669 70.6587 161.583 80.1209 150.467C83.2559 146.78 85.3764 143.151 82.0076 138.537C81.8195 138.281 81.7682 137.922 81.6599 137.609C77.5045 125.623 77.8294 113.682 82.2983 101.41L82.2926 101.405ZM142.406 58.6917C136.415 58.7202 131.485 59.8807 126.605 61.5419C124.57 62.236 123.641 63.2771 123.214 65.399C120.597 78.4781 113.797 88.9686 102.933 96.7113C100.687 98.3156 101.069 98.9641 103.052 100.256C112.885 106.656 123.487 108.408 134.922 105.962C152.849 102.127 165.127 92.2397 169.961 74.052C170.616 71.5887 169.961 70.1607 168.159 68.6418C160.481 62.1393 151.618 58.8908 142.406 58.6917Z" fill="white"/>
</g>
<defs>
<clipPath id="clip0_32_446">
<rect width="182" height="176.972" fill="white"/>
</clipPath>
</defs>
</svg>
