<svg width="162" height="182" viewBox="0 0 162 182" fill="none" xmlns="http://www.w3.org/2000/svg">
<g clip-path="url(#clip0_32_448)">
<path d="M87.3769 139.968C93.462 144.609 99.541 149.25 105.638 153.879C107.196 155.063 108.815 156.162 110.36 157.359C112.429 158.961 113.281 162.068 112.405 164.566C111.523 167.083 109.119 168.587 106.508 168.857C103.837 169.139 102.231 167.507 100.417 166.138C96.1151 162.903 91.8251 159.649 87.2065 156.156C87.1395 157.065 87.0604 157.66 87.0604 158.256C87.0483 163.879 87.0422 169.508 87.0604 175.131C87.0726 179.17 83.5067 182.362 79.8252 181.957C76.9896 181.65 74.2391 179.053 74.2635 175.923C74.3121 169.373 74.2756 162.817 74.2756 155.806C71.3791 157.985 68.8477 159.919 66.2798 161.81C63.3833 163.946 60.5598 166.217 57.505 168.108C54.6815 169.852 50.9696 168.722 49.3449 166.015C47.5863 163.093 48.3043 159.06 50.854 157.138C58.3813 151.466 65.9025 145.776 73.3994 140.06C73.7827 139.766 74.1722 139.183 74.1783 138.734C74.2208 126.776 74.2148 114.812 74.2148 102.504C72.9308 103.198 71.799 103.744 70.728 104.395C61.8985 109.741 53.1481 115.217 44.2212 120.386C41.9393 121.706 42.2131 123.609 41.9697 125.444C41.3856 129.87 40.9657 134.321 40.5336 138.765C40.2476 141.724 40.0894 144.689 39.8217 147.648C39.5296 150.908 39.2558 154.155 35.8055 155.929C31.5946 158.096 27.3289 154.928 26.8421 151.528C26.6048 149.852 26.6718 148.108 26.8117 146.414C27.0673 143.296 27.4811 140.183 27.834 137.071C28.0774 134.892 28.3269 132.712 28.6007 130.288C28.047 130.484 27.6697 130.545 27.3655 130.73C22.1444 133.848 16.9295 136.973 11.7206 140.11C7.58274 142.602 3.02499 140.085 2.15482 135.211C1.78363 133.142 3.00065 130.208 6.39614 128.243C11.5685 125.254 16.6313 122.074 21.8949 118.876C16.4548 116.635 11.1851 114.413 5.87282 112.301C3.09801 111.196 0.895198 109.778 0.292772 106.463C-0.364421 102.86 2.75116 99.0724 5.54423 99.2197C7.69836 99.3302 9.90726 99.9686 11.9336 100.773C19.6008 103.811 27.2012 107.04 34.8623 110.085C35.5134 110.343 36.6027 110.03 37.272 109.625C46.9291 103.793 56.5497 97.8999 66.1824 92.019C66.6996 91.7059 67.1986 91.3683 67.8984 90.9263C63.6206 88.3419 59.5192 85.8742 55.43 83.4003C49.278 79.6864 43.1502 75.9418 36.9556 72.3138C36.2497 71.9025 35.0449 71.835 34.2781 72.1419C25.9172 75.4998 17.6597 79.1216 9.25006 82.3444C4.49759 84.1676 0.895198 81.5587 0.0493671 76.5495C-0.32791 74.3212 1.98443 71.2395 4.54018 70.2083C9.78555 68.0843 15.0492 65.991 20.3006 63.867C20.8118 63.6583 21.2803 63.3391 21.8584 63.0198C17.2824 60.2329 12.7673 57.4582 8.22776 54.7142C5.78155 53.2348 3.21363 52.0254 2.37388 48.8088C1.41852 45.144 4.14465 41.4546 7.85049 41.1354C11.465 40.8285 13.8382 43.112 16.5583 44.6529C20.3189 46.7768 23.9395 49.1648 27.6271 51.4238C27.8097 51.5343 28.0774 51.4914 28.4669 51.5343C28.3695 49.8278 28.3269 48.1765 28.1687 46.5436C27.8644 43.4865 27.4993 40.4356 27.1342 37.3846C26.9334 35.7272 26.7387 34.0698 26.4405 32.4246C25.9294 29.6131 28.9841 25.8807 31.9171 25.5492C36.4688 25.0275 39.5783 28.4283 39.5783 32.4369C39.5783 36.3472 40.4485 40.2514 40.8805 44.1618C41.1665 46.7646 41.3551 49.3735 41.5925 51.9763C41.8237 54.5791 42.0062 57.1942 42.347 59.7847C42.4079 60.2636 43.0529 60.7731 43.5458 61.0739C53.2272 66.9793 62.9208 72.854 72.6144 78.7226C73.0282 78.9743 73.515 79.0971 74.2208 79.3856V77.4642C74.2208 66.3286 74.1965 55.1991 74.2513 44.0635C74.2574 42.8174 73.9105 42.0746 72.9126 41.3318C65.6895 35.9175 58.5699 30.3681 51.3043 25.009C48.134 22.6702 47.3368 18.5082 49.6735 15.4941C51.925 12.5905 56.1602 12.3388 59.1906 14.7022C64.0405 18.4775 68.9755 22.1423 74.0991 26.0281C74.1478 25.2607 74.2087 24.7635 74.2087 24.2724C74.2148 18.766 74.3243 13.2534 74.1783 7.75317C74.0687 3.45608 75.6022 1.2216 79.2715 0C80.2086 0 81.1518 0 82.0889 0C83.1295 0.65684 84.3221 1.16021 85.1741 2.01349C86.5128 3.35787 87.0665 5.12581 87.0604 7.0595C87.0422 12.6212 87.0604 18.1767 87.0604 23.7383V25.8869C89.8535 23.7752 92.3362 21.8967 94.8251 20.0306C97.4842 18.0355 100.107 15.9913 102.827 14.0883C105.498 12.216 109.764 13.0754 111.583 15.7212C113.61 18.6616 112.867 22.75 110.074 24.8372C103.174 29.9875 96.3159 35.2054 89.4397 40.3926C88.7521 40.9144 88.0706 41.4485 87.389 41.9764C87.2978 42.0807 87.2004 42.1851 87.1091 42.2895V78.8699C87.17 78.9866 87.2308 79.1094 87.2917 79.226C87.4499 79.1216 87.6142 79.0111 87.7724 78.9068C97.6972 72.9338 107.61 66.9363 117.565 61.0063C119.512 59.8461 118.813 57.9063 119.007 56.3716C119.689 51.0678 119.993 45.7149 120.504 40.3865C120.79 37.3908 121.137 34.3951 121.563 31.4178C121.995 28.3853 124.021 25.23 128.567 25.5615C131.579 25.7825 134.567 28.6431 134.238 31.7555C133.733 36.5498 133.283 41.3502 132.839 46.1507C132.681 47.888 132.601 49.6313 132.461 51.7553C134.5 50.5706 136.332 49.5393 138.133 48.4466C141.766 46.2428 145.277 43.7812 149.043 41.8413C151.891 40.3742 156.285 40.6259 158.165 44.3889C159.857 47.7836 158.481 51.2581 155.378 53.1304C149.981 56.39 144.613 59.6865 139.021 63.0996C144.206 65.2175 149.226 67.188 154.185 69.3181C156.279 70.2205 158.737 70.6625 159.948 73.0136C161.402 75.8436 161.238 78.0289 159.339 80.687C157.995 82.5654 154.739 83.3942 152.409 82.4734C145.94 79.9197 139.508 77.2739 133.058 74.6649C130.91 73.7932 128.798 72.8111 126.595 72.1174C125.731 71.8411 124.472 71.8902 123.717 72.3384C113.689 78.3113 103.721 84.3825 93.7419 90.4352C93.5959 90.5212 93.4985 90.6869 93.2064 91.0061C94.6425 91.9331 96.0177 92.8784 97.4417 93.7379C106.198 99.054 114.991 104.321 123.711 109.698C125.044 110.521 126.157 110.233 127.313 109.76C135.34 106.47 143.39 103.247 151.331 99.7661C155.634 97.8815 161.195 100.386 161.019 105.843C160.934 108.501 158.901 110.822 155.98 111.976C150.382 114.192 144.82 116.506 139.07 118.851C143.433 121.522 147.62 124.081 151.818 126.635C153.175 127.464 154.581 128.213 155.92 129.072C158.871 130.969 159.784 135.094 157.952 137.936C155.926 141.086 151.77 141.89 148.837 140.03C143.725 136.789 138.48 133.781 133.283 130.674C133.1 130.564 132.9 130.478 132.51 130.275C132.632 132.246 132.674 134.032 132.863 135.8C133.155 138.563 133.605 141.307 133.873 144.069C134.086 146.224 134.19 148.391 134.226 150.551C134.275 153.529 131.5 156.31 128.549 156.353C124.265 156.42 121.959 154.161 121.545 149.79C121.058 144.714 120.364 139.655 119.817 134.585C119.512 131.749 119.33 128.9 119.092 126.052C118.983 124.72 118.928 123.375 118.697 122.062C118.63 121.675 118.088 121.307 117.681 121.061C112.168 117.709 106.642 114.37 101.111 111.037C96.6688 108.36 92.2267 105.69 87.7846 103.02C87.6264 102.915 87.4621 102.805 87.3038 102.7C87.243 102.817 87.1821 102.94 87.1213 103.056C87.1213 115.248 87.1213 127.445 87.1213 139.637C87.2126 139.741 87.3099 139.846 87.4012 139.95L87.3769 139.968ZM87.2978 25.6843C87.2673 25.6659 87.2308 25.6413 87.2004 25.6229C87.1943 25.6966 87.1882 25.7641 87.1821 25.8378C87.2187 25.8255 87.2613 25.8193 87.2856 25.7948C87.3038 25.7702 87.2978 25.7273 87.2978 25.6904V25.6843ZM87.1213 156.248C87.1578 156.285 87.1882 156.322 87.2247 156.359C87.2612 156.322 87.2917 156.285 87.3282 156.254C87.2734 156.217 87.2247 156.187 87.17 156.15C87.1517 156.187 87.1395 156.217 87.1213 156.248Z" fill="white"/>
<path d="M87.7656 78.919C87.6074 79.0234 87.4431 79.1339 87.2849 79.2383C87.224 79.1216 87.1631 78.9989 87.1023 78.8822C87.3274 78.8945 87.5465 78.9068 87.7717 78.919H87.7656Z" fill="#D8D8D8"/>
<path d="M87.0959 103.075C87.1568 102.958 87.2176 102.835 87.2785 102.719C87.4367 102.823 87.601 102.934 87.7592 103.038C87.5341 103.05 87.315 103.063 87.0898 103.075H87.0959Z" fill="#D8D8D8"/>
<path d="M87.297 25.6843C87.297 25.7211 87.297 25.7641 87.2848 25.7887C87.2605 25.8132 87.2179 25.8193 87.1814 25.8316C87.1875 25.758 87.1936 25.6904 87.1997 25.6168C87.2301 25.6352 87.2666 25.6597 87.297 25.6782V25.6843Z" fill="#D7D7D7"/>
<path d="M87.1211 156.248C87.1211 156.248 87.1515 156.187 87.1698 156.15C87.2245 156.187 87.2732 156.217 87.328 156.254L87.2245 156.359C87.1941 156.322 87.1576 156.285 87.1211 156.248Z" fill="#D7D7D7"/>
</g>
<defs>
<clipPath id="clip0_32_448">
<rect width="162" height="182" fill="white"/>
</clipPath>
</defs>
</svg>
